<?xml version="1.0" encoding="UTF-8" standalone="no"?>
<svg
   xmlns:dc="http://purl.org/dc/elements/1.1/"
   xmlns:cc="http://creativecommons.org/ns#"
   xmlns:rdf="http://www.w3.org/1999/02/22-rdf-syntax-ns#"
   xmlns:svg="http://www.w3.org/2000/svg"
   xmlns="http://www.w3.org/2000/svg"
   xmlns:sodipodi="http://sodipodi.sourceforge.net/DTD/sodipodi-0.dtd"
   xmlns:inkscape="http://www.inkscape.org/namespaces/inkscape"
   style="fill-opacity:1; color-rendering:auto; color-interpolation:auto; text-rendering:auto; stroke:black; stroke-linecap:square; stroke-miterlimit:10; shape-rendering:auto; stroke-opacity:1; fill:black; stroke-dasharray:none; font-weight:normal; stroke-width:1; font-family:'Dialog'; font-style:normal; stroke-linejoin:miter; font-size:12px; stroke-dashoffset:0; image-rendering:auto;"
   width="970"
   height="532"
   version="1.1"
   id="svg406"
   sodipodi:docname="level_diagram.svg"
   inkscape:version="0.92.3 (2405546, 2018-03-11)">
  <metadata
     id="metadata410">
    <rdf:RDF>
      <cc:Work
         rdf:about="">
        <dc:format>image/svg+xml</dc:format>
        <dc:type
           rdf:resource="http://purl.org/dc/dcmitype/StillImage" />
      </cc:Work>
    </rdf:RDF>
  </metadata>
  <sodipodi:namedview
     pagecolor="#ffffff"
     bordercolor="#666666"
     borderopacity="1"
     objecttolerance="10"
     gridtolerance="10"
     guidetolerance="10"
     inkscape:pageopacity="0"
     inkscape:pageshadow="2"
     inkscape:window-width="1920"
     inkscape:window-height="1017"
     id="namedview408"
     showgrid="false"
     inkscape:zoom="1"
     inkscape:cx="498.85272"
     inkscape:cy="171.13187"
     inkscape:window-x="-8"
     inkscape:window-y="-8"
     inkscape:window-maximized="1"
     inkscape:current-layer="svg406" />
  <!--Generated by the Batik Graphics2D SVG Generator-->
  <path
     style="fill:none;stroke:#a600aa;stroke-width:1px;stroke-linecap:butt;stroke-linejoin:miter;stroke-opacity:1"
     d="m 434.04749,375.45004 -66.97883,97.50654"
     id="path5021"
     inkscape:connector-curvature="0"
     sodipodi:nodetypes="cc" />
  <defs
     id="genericDefs">
    <defs
       id="defs1">
      <clipPath
         id="clipPath1"
         clipPathUnits="userSpaceOnUse">
        <path
           id="path212"
           d="M0 0 L970 0 L970 532 L0 532 L0 0 Z" />
      </clipPath>
    </defs>
    <clipPath
       id="clipPath1-9"
       clipPathUnits="userSpaceOnUse">
      <path
         id="path5141"
         d="M0 0 L970 0 L970 532 L0 532 L0 0 Z" />
    </clipPath>
    <defs
       id="defs1-3">
      <clipPath
         id="clipPath5217"
         clipPathUnits="userSpaceOnUse">
        <path
           id="path5215"
           d="M 0,0 H 970 V 532 H 0 Z"
           inkscape:connector-curvature="0" />
      </clipPath>
    </defs>
  </defs>
  <g
     id="g240"
     style="color-interpolation:linearRGB;fill:#262626;stroke:#262626;stroke-width:0.66670001;stroke-linejoin:round;color-rendering:optimizeQuality;image-rendering:optimizeQuality;text-rendering:geometricPrecision">
    <line
       id="line226"
       y1="473"
       x2="878"
       x1="126"
       style="fill:none"
       y2="473" />
    <line
       id="line228"
       y1="473"
       x2="126"
       x1="126"
       style="fill:none"
       y2="40" />
    <line
       id="line230"
       y1="473"
       x2="133.52"
       x1="126"
       style="fill:none"
       y2="473" />
    <line
       id="line232"
       y1="364.75"
       x2="133.52"
       x1="126"
       style="fill:none"
       y2="364.75" />
    <line
       id="line234"
       y1="256.5"
       x2="133.52"
       x1="126"
       style="fill:none"
       y2="256.5" />
    <line
       id="line236"
       y1="148.25"
       x2="133.52"
       x1="126"
       style="fill:none"
       y2="148.25" />
    <line
       id="line238"
       y1="40"
       x2="133.52"
       x1="126"
       style="fill:none"
       y2="40" />
  </g>
  <g
     id="g244"
     style="font-size:13.33329964px;font-family:SansSerif;color-interpolation:linearRGB;fill:#262626;stroke:#262626;color-rendering:optimizeQuality;image-rendering:optimizeQuality;text-rendering:geometricPrecision"
     transform="translate(120.6667,473)">
    <path
       inkscape:connector-curvature="0"
       id="path242"
       d="m -10.1562,5.5 h -1.1407 v -7.2812 q -0.4219,0.3906 -1.0859,0.789 -0.6641,0.3984 -1.1953,0.586 v -1.1094 q 0.9531,-0.4375 1.6719,-1.0782 0.7187,-0.6406 1.0156,-1.25 h 0.7344 z M -5.2993,0.4531 Q -6.0025,0.1875 -6.3462,-0.2891 -6.69,-0.7656 -6.69,-1.4375 q 0,-1.0156 0.7266,-1.7109 0.7266,-0.6954 1.9453,-0.6954 1.2188,0 1.9609,0.711 0.7422,0.7109 0.7422,1.7266 0,0.6406 -0.3437,1.1171 -0.3438,0.4766 -1.0313,0.7422 0.8594,0.2813 1.3047,0.9063 0.4453,0.625 0.4453,1.4844 0,1.1874 -0.8437,2 -0.8438,0.8124 -2.2188,0.8124 -1.375,0 -2.2187,-0.8124 -0.8438,-0.8126 -0.8438,-2.0313 0,-0.9063 0.461,-1.5234 0.4609,-0.6172 1.3047,-0.836 z m -0.2344,-1.9375 q 0,0.6563 0.4297,1.0782 0.4297,0.4218 1.1015,0.4218 0.6719,0 1.0938,-0.414 0.4219,-0.4141 0.4219,-1.0235 0,-0.625 -0.4375,-1.0547 -0.4375,-0.4296 -1.0782,-0.4296 -0.6562,0 -1.0937,0.4218 -0.4375,0.4219 -0.4375,1 z m -0.3594,4.2969 q 0,0.4844 0.2344,0.9453 0.2344,0.461 0.6875,0.711 0.4531,0.25 0.9844,0.25 0.8125,0 1.3437,-0.5235 0.5313,-0.5234 0.5313,-1.3359 0,-0.8282 -0.5469,-1.3672 -0.5469,-0.5391 -1.375,-0.5391 -0.7969,0 -1.3281,0.5313 -0.5313,0.5312 -0.5313,1.3281 z"
       style="stroke:none" />
  </g>
  <g
     id="g248"
     style="font-size:13.33329964px;font-family:SansSerif;color-interpolation:linearRGB;fill:#262626;stroke:#262626;color-rendering:optimizeQuality;image-rendering:optimizeQuality;text-rendering:geometricPrecision"
     transform="translate(120.6667,364.75)">
    <path
       inkscape:connector-curvature="0"
       id="path246"
       d="M -8.4531,4.4062 V 5.5 h -6.1563 q -0.0156,-0.4062 0.1406,-0.7969 0.2344,-0.625 0.75,-1.2343 0.5157,-0.6094 1.5,-1.4063 1.5157,-1.25 2.0469,-1.9766 0.5313,-0.7265 0.5313,-1.3671 0,-0.6876 -0.4844,-1.1485 -0.4844,-0.4609 -1.2656,-0.4609 -0.8282,0 -1.3203,0.4922 -0.4922,0.4922 -0.5079,1.3672 l -1.1718,-0.125 q 0.125,-1.3126 0.9062,-2 0.7813,-0.6876 2.1094,-0.6876 1.3438,0 2.125,0.7422 0.7812,0.7422 0.7812,1.836 0,0.5625 -0.2265,1.1015 -0.2266,0.5391 -0.7578,1.1407 -0.5313,0.6015 -1.7657,1.6328 -1.0312,0.8594 -1.3203,1.1718 -0.289,0.3126 -0.4765,0.625 z m 1.4038,-3.5 q 0,-1.6406 0.3359,-2.6484 0.3359,-1.0078 1.0078,-1.5547 0.6719,-0.5469 1.6875,-0.5469 0.75,0 1.3125,0.3047 0.5625,0.3047 0.9297,0.8672 0.3672,0.5625 0.5781,1.3828 0.211,0.8203 0.211,2.1953 0,1.6407 -0.336,2.6485 -0.3359,1.0078 -1.0078,1.5547 -0.6719,0.5468 -1.6875,0.5468 -1.3437,0 -2.125,-0.9687 -0.9062,-1.1563 -0.9062,-3.7813 z m 1.1718,0 q 0,2.2969 0.5313,3.0547 0.5312,0.7579 1.3281,0.7579 0.7813,0 1.3203,-0.7579 0.5391,-0.7578 0.5391,-3.0547 0,-2.2968 -0.5391,-3.0468 -0.539,-0.75 -1.3359,-0.75 -0.7813,0 -1.2656,0.6562 -0.5782,0.8594 -0.5782,3.1406 z"
       style="stroke:none" />
  </g>
  <g
     id="g252"
     style="font-size:13.33329964px;font-family:SansSerif;color-interpolation:linearRGB;fill:#262626;stroke:#262626;color-rendering:optimizeQuality;image-rendering:optimizeQuality;text-rendering:geometricPrecision"
     transform="translate(120.6667,256.5)">
    <path
       inkscape:connector-curvature="0"
       id="path250"
       d="M -8.4531,4.4062 V 5.5 h -6.1563 q -0.0156,-0.4062 0.1406,-0.7969 0.2344,-0.625 0.75,-1.2343 0.5157,-0.6094 1.5,-1.4063 1.5157,-1.25 2.0469,-1.9766 0.5313,-0.7265 0.5313,-1.3671 0,-0.6876 -0.4844,-1.1485 -0.4844,-0.4609 -1.2656,-0.4609 -0.8282,0 -1.3203,0.4922 -0.4922,0.4922 -0.5079,1.3672 l -1.1718,-0.125 q 0.125,-1.3126 0.9062,-2 0.7813,-0.6876 2.1094,-0.6876 1.3438,0 2.125,0.7422 0.7812,0.7422 0.7812,1.836 0,0.5625 -0.2265,1.1015 -0.2266,0.5391 -0.7578,1.1407 -0.5313,0.6015 -1.7657,1.6328 -1.0312,0.8594 -1.3203,1.1718 -0.289,0.3126 -0.4765,0.625 z m 7.4038,0 V 5.5 h -6.1563 q -0.0156,-0.4062 0.1406,-0.7969 0.2344,-0.625 0.75,-1.2343 0.5157,-0.6094 1.5,-1.4063 1.5157,-1.25 2.0469,-1.9766 0.5313,-0.7265 0.5313,-1.3671 0,-0.6876 -0.4844,-1.1485 -0.4844,-0.4609 -1.2656,-0.4609 -0.8282,0 -1.3204,0.4922 -0.4921,0.4922 -0.5078,1.3672 l -1.1718,-0.125 q 0.125,-1.3126 0.9062,-2 0.7813,-0.6876 2.1094,-0.6876 1.3437,0 2.125,0.7422 0.7812,0.7422 0.7812,1.836 0,0.5625 -0.2265,1.1015 -0.2266,0.5391 -0.7578,1.1407 -0.5313,0.6015 -1.7657,1.6328 -1.0312,0.8594 -1.3203,1.1718 -0.289,0.3126 -0.4765,0.625 z"
       style="stroke:none" />
  </g>
  <g
     id="g256"
     style="font-size:13.33329964px;font-family:SansSerif;color-interpolation:linearRGB;fill:#262626;stroke:#262626;color-rendering:optimizeQuality;image-rendering:optimizeQuality;text-rendering:geometricPrecision"
     transform="translate(120.6667,148.25)">
    <path
       inkscape:connector-curvature="0"
       id="path254"
       d="M -8.4531,4.4062 V 5.5 h -6.1563 q -0.0156,-0.4062 0.1406,-0.7969 0.2344,-0.625 0.75,-1.2343 0.5157,-0.6094 1.5,-1.4063 1.5157,-1.25 2.0469,-1.9766 0.5313,-0.7265 0.5313,-1.3671 0,-0.6876 -0.4844,-1.1485 -0.4844,-0.4609 -1.2656,-0.4609 -0.8282,0 -1.3203,0.4922 -0.4922,0.4922 -0.5079,1.3672 l -1.1718,-0.125 q 0.125,-1.3126 0.9062,-2 0.7813,-0.6876 2.1094,-0.6876 1.3438,0 2.125,0.7422 0.7812,0.7422 0.7812,1.836 0,0.5625 -0.2265,1.1015 -0.2266,0.5391 -0.7578,1.1407 -0.5313,0.6015 -1.7657,1.6328 -1.0312,0.8594 -1.3203,1.1718 -0.289,0.3126 -0.4765,0.625 z M -3.3931,5.5 V 3.2656 H -7.4243 V 2.2188 L -3.19,-3.8125 h 0.9375 v 6.0313 h 1.2657 V 3.2656 H -2.2525 V 5.5 Z m 0,-3.2812 V -1.9688 L -6.315,2.2188 Z"
       style="stroke:none" />
  </g>
  <g
     id="g260"
     style="font-size:13.33329964px;font-family:SansSerif;color-interpolation:linearRGB;fill:#262626;stroke:#262626;color-rendering:optimizeQuality;image-rendering:optimizeQuality;text-rendering:geometricPrecision"
     transform="translate(120.6667,40)">
    <path
       inkscape:connector-curvature="0"
       id="path258"
       d="M -8.4531,4.4062 V 5.5 h -6.1563 q -0.0156,-0.4062 0.1406,-0.7969 0.2344,-0.625 0.75,-1.2343 0.5157,-0.6094 1.5,-1.4063 1.5157,-1.25 2.0469,-1.9766 0.5313,-0.7265 0.5313,-1.3671 0,-0.6876 -0.4844,-1.1485 -0.4844,-0.4609 -1.2656,-0.4609 -0.8282,0 -1.3203,0.4922 -0.4922,0.4922 -0.5079,1.3672 l -1.1718,-0.125 q 0.125,-1.3126 0.9062,-2 0.7813,-0.6876 2.1094,-0.6876 1.3438,0 2.125,0.7422 0.7812,0.7422 0.7812,1.836 0,0.5625 -0.2265,1.1015 -0.2266,0.5391 -0.7578,1.1407 -0.5313,0.6015 -1.7657,1.6328 -1.0312,0.8594 -1.3203,1.1718 -0.289,0.3126 -0.4765,0.625 z m 7.3256,-5.9374 -1.1406,0.0937 q -0.1406,-0.6719 -0.4219,-0.9844 -0.4687,-0.4843 -1.1406,-0.4843 -0.5469,0 -0.9687,0.3124 -0.5313,0.3907 -0.8438,1.1407 -0.3125,0.75 -0.3281,2.1562 0.4062,-0.625 1.0078,-0.9297 0.6016,-0.3046 1.2578,-0.3046 1.1406,0 1.9453,0.8359 0.8047,0.8359 0.8047,2.1797 0,0.875 -0.3828,1.625 -0.3828,0.75 -1.0391,1.1484 -0.6562,0.3984 -1.5,0.3984 -1.4218,0 -2.3281,-1.0468 -0.9062,-1.0469 -0.9062,-3.4688 0,-2.6875 1,-3.9218 0.875,-1.0626 2.3437,-1.0626 1.0938,0 1.7969,0.6172 0.7031,0.6172 0.8437,1.6954 z m -4.6718,4.0156 q 0,0.5937 0.25,1.1328 0.25,0.539 0.7031,0.8203 0.4531,0.2813 0.9531,0.2813 0.7188,0 1.2422,-0.586 0.5234,-0.5859 0.5234,-1.5859 0,-0.9688 -0.5156,-1.5235 -0.5156,-0.5546 -1.2969,-0.5546 -0.7812,0 -1.3203,0.5546 -0.539,0.5547 -0.539,1.461 z"
       style="stroke:none" />
  </g>
  <g
     id="g266"
     style="color-interpolation:linearRGB;stroke-width:0.66670001;stroke-linecap:butt;stroke-linejoin:bevel;stroke-miterlimit:1;stroke-dasharray:1, 3;color-rendering:optimizeQuality;image-rendering:optimizeQuality;text-rendering:geometricPrecision"
     transform="translate(-86)">
    <line
       id="line262"
       y1="473.05161"
       x2="502"
       x1="502"
       style="fill:none"
       y2="94.125" />
    <line
       id="line264"
       y2="375.57501"
       style="fill:none;stroke-linejoin:round;stroke-miterlimit:10;stroke-dasharray:none"
       y1="375.57501"
       x2="577.20001"
       x1="510.35559" />
  </g>
  <g
     id="g270"
     style="font-size:16px;font-family:SansSerif;color-interpolation:linearRGB;color-rendering:optimizeQuality;image-rendering:optimizeQuality;text-rendering:geometricPrecision"
     transform="translate(449,368)">
    <path
       inkscape:connector-curvature="0"
       id="path268"
       d="M 8.0625,-1.3594 V 0 H 0.4844 Q 0.4688,-0.5156 0.6562,-0.9844 0.9375,-1.75 1.5781,-2.5 2.2188,-3.25 3.4219,-4.2344 5.2812,-5.7656 5.9375,-6.6641 6.5938,-7.5625 6.5938,-8.3594 6.5938,-9.1875 6,-9.7656 q -0.5938,-0.5782 -1.5625,-0.5782 -1.0156,0 -1.625,0.6094 -0.6094,0.6094 -0.6094,1.6875 L 0.75,-8.1875 q 0.1562,-1.625 1.125,-2.4687 0.9688,-0.8438 2.5938,-0.8438 1.6562,0 2.6171,0.9141 0.961,0.914 0.961,2.2578 0,0.6875 -0.2813,1.3515 -0.2812,0.6641 -0.9375,1.3985 -0.6562,0.7343 -2.1719,2.0156 -1.2656,1.0625 -1.625,1.4453 -0.3593,0.3828 -0.5937,0.7578 z"
       style="stroke:none" />
  </g>
  <g
     id="g274"
     style="font-size:12.80000019px;font-family:SansSerif;color-interpolation:linearRGB;color-rendering:optimizeQuality;image-rendering:optimizeQuality;text-rendering:geometricPrecision"
     transform="translate(458,360)">
    <path
       inkscape:connector-curvature="0"
       id="path272"
       d="m 0.5469,-2.4531 1.1406,-0.1563 q 0.2031,0.9688 0.6719,1.3985 0.4687,0.4297 1.1562,0.4297 0.7969,0 1.3516,-0.5547 0.5547,-0.5547 0.5547,-1.3829 0,-0.7968 -0.5078,-1.3046 -0.5079,-0.5078 -1.3047,-0.5078 -0.3282,0 -0.8125,0.125 l 0.125,-1 q 0.125,0.0156 0.1875,0.0156 0.7344,0 1.3203,-0.3828 0.5859,-0.3828 0.5859,-1.1797 0,-0.625 -0.4297,-1.0391 -0.4297,-0.414 -1.1015,-0.414 -0.6719,0 -1.1094,0.4218 -0.4375,0.4219 -0.5781,1.25 L 0.6562,-6.9375 q 0.2188,-1.1406 0.961,-1.7734 0.7422,-0.6329 1.8359,-0.6329 0.7657,0 1.4063,0.3282 0.6406,0.3281 0.9844,0.8906 0.3437,0.5625 0.3437,1.2031 0,0.5938 -0.3281,1.0938 -0.3282,0.5 -0.9532,0.7812 0.8126,0.2031 1.2735,0.7969 0.4609,0.5938 0.4609,1.5 0,1.2188 -0.8906,2.0703 -0.8906,0.8516 -2.25,0.8516 -1.2188,0 -2.0312,-0.7344 -0.8126,-0.7344 -0.9219,-1.8906 z"
       style="stroke:none" />
  </g>
  <g
     id="g278"
     style="font-size:16px;font-family:SansSerif;color-interpolation:linearRGB;color-rendering:optimizeQuality;image-rendering:optimizeQuality;text-rendering:geometricPrecision"
     transform="translate(466,368)">
    <path
       inkscape:connector-curvature="0"
       id="path276"
       d="m 0.7188,-3.6875 1.4374,-0.125 Q 2.25,-2.9531 2.625,-2.3984 3,-1.8438 3.7812,-1.5078 q 0.7813,0.3359 1.75,0.3359 0.875,0 1.5391,-0.2578 0.6641,-0.2578 0.9844,-0.7031 0.3203,-0.4453 0.3203,-0.9766 0,-0.5468 -0.3125,-0.9453 Q 7.75,-4.4531 7.0312,-4.7344 6.5781,-4.9062 5,-5.2891 3.4219,-5.6719 2.7812,-6 1.9688,-6.4375 1.5625,-7.0703 1.1562,-7.7031 1.1562,-8.5 q 0,-0.8594 0.4922,-1.6172 0.4922,-0.7578 1.4375,-1.1484 0.9453,-0.3906 2.1016,-0.3906 1.2813,0 2.25,0.414 0.9687,0.4141 1.4922,1.211 0.5234,0.7968 0.5703,1.7968 L 8.0469,-8.125 Q 7.9219,-9.2031 7.25,-9.7578 q -0.6719,-0.5547 -2,-0.5547 -1.375,0 -2,0.5 -0.625,0.5 -0.625,1.2187 0,0.6094 0.4375,1.0157 0.4375,0.3906 2.2891,0.8125 1.8515,0.4218 2.539,0.7344 1,0.4531 1.4766,1.164 0.4766,0.711 0.4766,1.6328 0,0.9063 -0.5235,1.7188 Q 8.7969,-0.7031 7.8125,-0.25 6.8281,0.2031 5.6094,0.2031 4.0469,0.2031 3,-0.2578 1.9531,-0.7188 1.3516,-1.625 0.75,-2.5312 0.7188,-3.6875 Z"
       style="stroke:none" />
  </g>
  <g
     id="g282"
     style="color-interpolation:linearRGB;stroke-width:0.66670001;stroke-linecap:butt;stroke-linejoin:round;color-rendering:optimizeQuality;image-rendering:optimizeQuality;text-rendering:geometricPrecision"
     transform="translate(-86)">
    <line
       id="line280"
       y1="313.58691"
       x2="660.75562"
       x1="593.91107"
       style="fill:none"
       y2="313.58691" />
  </g>
  <g
     id="g286"
     style="font-size:16px;font-family:SansSerif;color-interpolation:linearRGB;color-rendering:optimizeQuality;image-rendering:optimizeQuality;text-rendering:geometricPrecision"
     transform="translate(533,306)">
    <path
       inkscape:connector-curvature="0"
       id="path284"
       d="M 8.0625,-1.3594 V 0 H 0.4844 Q 0.4688,-0.5156 0.6562,-0.9844 0.9375,-1.75 1.5781,-2.5 2.2188,-3.25 3.4219,-4.2344 5.2812,-5.7656 5.9375,-6.6641 6.5938,-7.5625 6.5938,-8.3594 6.5938,-9.1875 6,-9.7656 q -0.5938,-0.5782 -1.5625,-0.5782 -1.0156,0 -1.625,0.6094 -0.6094,0.6094 -0.6094,1.6875 L 0.75,-8.1875 q 0.1562,-1.625 1.125,-2.4687 0.9688,-0.8438 2.5938,-0.8438 1.6562,0 2.6171,0.9141 0.961,0.914 0.961,2.2578 0,0.6875 -0.2813,1.3515 -0.2812,0.6641 -0.9375,1.3985 -0.6562,0.7343 -2.1719,2.0156 -1.2656,1.0625 -1.625,1.4453 -0.3593,0.3828 -0.5937,0.7578 z"
       style="stroke:none" />
  </g>
  <g
     id="g290"
     style="font-size:12.80000019px;font-family:SansSerif;color-interpolation:linearRGB;color-rendering:optimizeQuality;image-rendering:optimizeQuality;text-rendering:geometricPrecision"
     transform="translate(542,298)">
    <path
       inkscape:connector-curvature="0"
       id="path288"
       d="m 0.5469,-2.4531 1.1406,-0.1563 q 0.2031,0.9688 0.6719,1.3985 0.4687,0.4297 1.1562,0.4297 0.7969,0 1.3516,-0.5547 0.5547,-0.5547 0.5547,-1.3829 0,-0.7968 -0.5078,-1.3046 -0.5079,-0.5078 -1.3047,-0.5078 -0.3282,0 -0.8125,0.125 l 0.125,-1 q 0.125,0.0156 0.1875,0.0156 0.7344,0 1.3203,-0.3828 0.5859,-0.3828 0.5859,-1.1797 0,-0.625 -0.4297,-1.0391 -0.4297,-0.414 -1.1015,-0.414 -0.6719,0 -1.1094,0.4218 -0.4375,0.4219 -0.5781,1.25 L 0.6562,-6.9375 q 0.2188,-1.1406 0.961,-1.7734 0.7422,-0.6329 1.8359,-0.6329 0.7657,0 1.4063,0.3282 0.6406,0.3281 0.9844,0.8906 0.3437,0.5625 0.3437,1.2031 0,0.5938 -0.3281,1.0938 -0.3282,0.5 -0.9532,0.7812 0.8126,0.2031 1.2735,0.7969 0.4609,0.5938 0.4609,1.5 0,1.2188 -0.8906,2.0703 -0.8906,0.8516 -2.25,0.8516 -1.2188,0 -2.0312,-0.7344 -0.8126,-0.7344 -0.9219,-1.8906 z"
       style="stroke:none" />
  </g>
  <g
     id="g294"
     style="font-size:16px;font-family:SansSerif;color-interpolation:linearRGB;color-rendering:optimizeQuality;image-rendering:optimizeQuality;text-rendering:geometricPrecision"
     transform="translate(550,306)">
    <path
       inkscape:connector-curvature="0"
       id="path292"
       d="m 1.2344,0 v -11.4531 h 4.3281 q 1.1406,0 1.7344,0.1093 0.8437,0.1407 1.414,0.5313 0.5703,0.3906 0.9219,1.1016 0.3516,0.7109 0.3516,1.5703 0,1.4531 -0.9297,2.4687 -0.9297,1.0157 -3.3672,1.0157 H 2.75 V 0 Z M 2.75,-6.0156 h 2.9688 q 1.4687,0 2.0859,-0.5469 0.6172,-0.5469 0.6172,-1.5313 0,-0.7187 -0.3672,-1.2343 Q 7.6875,-9.8438 7.0938,-10 6.7188,-10.1094 5.6875,-10.1094 H 2.75 Z"
       style="stroke:none" />
  </g>
  <g
     id="g298"
     style="color-interpolation:linearRGB;stroke-width:0.68698347;stroke-linecap:butt;stroke-linejoin:round;stroke-miterlimit:10;stroke-dasharray:none;color-rendering:optimizeQuality;image-rendering:optimizeQuality;text-rendering:geometricPrecision"
     transform="translate(-86)">
    <line
       id="line296"
       y1="150.6707"
       x2="577.20001"
       x1="510.35559"
       style="fill:none;stroke-width:0.68698347;stroke-miterlimit:10;stroke-dasharray:none"
       y2="150.6707" />
  </g>
  <g
     id="g302"
     style="font-size:16px;font-family:SansSerif;color-interpolation:linearRGB;color-rendering:optimizeQuality;image-rendering:optimizeQuality;text-rendering:geometricPrecision"
     transform="translate(449,143)">
    <path
       inkscape:connector-curvature="0"
       id="path300"
       d="m 0.6719,-3 1.4687,-0.125 q 0.1719,1.0781 0.7656,1.6172 0.5938,0.539 1.4376,0.539 1.0156,0 1.7187,-0.7656 0.7031,-0.7656 0.7031,-2.0312 0,-1.2032 -0.6718,-1.8985 -0.6719,-0.6953 -1.7657,-0.6953 -0.6875,0 -1.2343,0.3125 -0.5469,0.3125 -0.8594,0.7969 l -1.3125,-0.1719 1.1093,-5.875 h 5.6876 v 1.3438 H 3.1562 l -0.625,3.0781 q 1.0313,-0.7188 2.1719,-0.7188 1.5,0 2.5313,1.0391 1.0312,1.0391 1.0312,2.6641 0,1.5625 -0.9062,2.6875 Q 6.25,0.2031 4.3438,0.2031 2.7812,0.2031 1.7969,-0.6797 0.8125,-1.5625 0.6719,-3 Z"
       style="stroke:none" />
  </g>
  <g
     id="g306"
     style="font-size:12.80000019px;font-family:SansSerif;color-interpolation:linearRGB;color-rendering:optimizeQuality;image-rendering:optimizeQuality;text-rendering:geometricPrecision"
     transform="translate(458,135)">
    <path
       inkscape:connector-curvature="0"
       id="path304"
       d="m 0.5469,-2.4531 1.1406,-0.1563 q 0.2031,0.9688 0.6719,1.3985 0.4687,0.4297 1.1562,0.4297 0.7969,0 1.3516,-0.5547 0.5547,-0.5547 0.5547,-1.3829 0,-0.7968 -0.5078,-1.3046 -0.5079,-0.5078 -1.3047,-0.5078 -0.3282,0 -0.8125,0.125 l 0.125,-1 q 0.125,0.0156 0.1875,0.0156 0.7344,0 1.3203,-0.3828 0.5859,-0.3828 0.5859,-1.1797 0,-0.625 -0.4297,-1.0391 -0.4297,-0.414 -1.1015,-0.414 -0.6719,0 -1.1094,0.4218 -0.4375,0.4219 -0.5781,1.25 L 0.6562,-6.9375 q 0.2188,-1.1406 0.961,-1.7734 0.7422,-0.6329 1.8359,-0.6329 0.7657,0 1.4063,0.3282 0.6406,0.3281 0.9844,0.8906 0.3437,0.5625 0.3437,1.2031 0,0.5938 -0.3281,1.0938 -0.3282,0.5 -0.9532,0.7812 0.8126,0.2031 1.2735,0.7969 0.4609,0.5938 0.4609,1.5 0,1.2188 -0.8906,2.0703 -0.8906,0.8516 -2.25,0.8516 -1.2188,0 -2.0312,-0.7344 -0.8126,-0.7344 -0.9219,-1.8906 z"
       style="stroke:none" />
  </g>
  <g
     id="g310"
     style="font-size:16px;font-family:SansSerif;color-interpolation:linearRGB;color-rendering:optimizeQuality;image-rendering:optimizeQuality;text-rendering:geometricPrecision"
     transform="translate(466,143)">
    <path
       inkscape:connector-curvature="0"
       id="path308"
       d="m 0.7188,-3.6875 1.4374,-0.125 Q 2.25,-2.9531 2.625,-2.3984 3,-1.8438 3.7812,-1.5078 q 0.7813,0.3359 1.75,0.3359 0.875,0 1.5391,-0.2578 0.6641,-0.2578 0.9844,-0.7031 0.3203,-0.4453 0.3203,-0.9766 0,-0.5468 -0.3125,-0.9453 Q 7.75,-4.4531 7.0312,-4.7344 6.5781,-4.9062 5,-5.2891 3.4219,-5.6719 2.7812,-6 1.9688,-6.4375 1.5625,-7.0703 1.1562,-7.7031 1.1562,-8.5 q 0,-0.8594 0.4922,-1.6172 0.4922,-0.7578 1.4375,-1.1484 0.9453,-0.3906 2.1016,-0.3906 1.2813,0 2.25,0.414 0.9687,0.4141 1.4922,1.211 0.5234,0.7968 0.5703,1.7968 L 8.0469,-8.125 Q 7.9219,-9.2031 7.25,-9.7578 q -0.6719,-0.5547 -2,-0.5547 -1.375,0 -2,0.5 -0.625,0.5 -0.625,1.2187 0,0.6094 0.4375,1.0157 0.4375,0.3906 2.2891,0.8125 1.8515,0.4218 2.539,0.7344 1,0.4531 1.4766,1.164 0.4766,0.711 0.4766,1.6328 0,0.9063 -0.5235,1.7188 Q 8.7969,-0.7031 7.8125,-0.25 6.8281,0.2031 5.6094,0.2031 4.0469,0.2031 3,-0.2578 1.9531,-0.7188 1.3516,-1.625 0.75,-2.5312 0.7188,-3.6875 Z"
       style="stroke:none" />
  </g>
  <g
     id="g5203"
     style="font-style:normal;font-weight:normal;font-size:medium;font-family:Dialog;color-interpolation:linearRGB;fill:#000000;fill-opacity:1;stroke:#000000;stroke-width:2.54414654;stroke-linecap:butt;stroke-linejoin:round;stroke-miterlimit:10;stroke-dasharray:none;stroke-dashoffset:0;stroke-opacity:1;color-rendering:optimizeQuality;image-rendering:optimizeQuality;shape-rendering:auto;text-rendering:geometricPrecision"
     transform="matrix(0.11224468,0,0,0.22860107,670.22883,78.571413)">
    <line
       id="line5197"
       y1="188.81441"
       x2="802.79999"
       x1="201.2"
       style="fill:none;stroke-width:2.54414654;stroke-miterlimit:10;stroke-dasharray:none"
       y2="188.81441" />
    <line
       id="line5199"
       y1="392.07059"
       x2="802.79999"
       x1="201.2"
       style="fill:none;stroke-width:2.54414654;stroke-miterlimit:10;stroke-dasharray:none"
       y2="392.07059" />
    <line
       id="line5201"
       y1="405.8476"
       x2="802.79999"
       x1="201.2"
       style="fill:none;stroke-width:2.54414654;stroke-miterlimit:10;stroke-dasharray:none"
       y2="405.8476" />
  </g>
  <g
     id="g314"
     style="color-interpolation:linearRGB;stroke-width:0.68698347;stroke-linecap:butt;stroke-linejoin:round;stroke-miterlimit:10;stroke-dasharray:none;color-rendering:optimizeQuality;image-rendering:optimizeQuality;text-rendering:geometricPrecision"
     transform="translate(-86)">
    <line
       id="line312"
       y1="146.84171"
       x2="744.3111"
       x1="677.46667"
       style="fill:none;stroke-width:0.68698347;stroke-miterlimit:10;stroke-dasharray:none"
       y2="146.84171" />
  </g>
  <g
     id="g318"
     style="font-size:16px;font-family:SansSerif;color-interpolation:linearRGB;color-rendering:optimizeQuality;image-rendering:optimizeQuality;text-rendering:geometricPrecision"
     transform="translate(617,140)">
    <path
       inkscape:connector-curvature="0"
       id="path316"
       d="m 0.6719,-3 1.4687,-0.125 q 0.1719,1.0781 0.7656,1.6172 0.5938,0.539 1.4376,0.539 1.0156,0 1.7187,-0.7656 0.7031,-0.7656 0.7031,-2.0312 0,-1.2032 -0.6718,-1.8985 -0.6719,-0.6953 -1.7657,-0.6953 -0.6875,0 -1.2343,0.3125 -0.5469,0.3125 -0.8594,0.7969 l -1.3125,-0.1719 1.1093,-5.875 h 5.6876 v 1.3438 H 3.1562 l -0.625,3.0781 q 1.0313,-0.7188 2.1719,-0.7188 1.5,0 2.5313,1.0391 1.0312,1.0391 1.0312,2.6641 0,1.5625 -0.9062,2.6875 Q 6.25,0.2031 4.3438,0.2031 2.7812,0.2031 1.7969,-0.6797 0.8125,-1.5625 0.6719,-3 Z"
       style="stroke:none" />
  </g>
  <g
     id="g322"
     style="font-size:12.80000019px;font-family:SansSerif;color-interpolation:linearRGB;color-rendering:optimizeQuality;image-rendering:optimizeQuality;text-rendering:geometricPrecision"
     transform="translate(626,132)">
    <path
       inkscape:connector-curvature="0"
       id="path320"
       d="m 0.5469,-2.4531 1.1406,-0.1563 q 0.2031,0.9688 0.6719,1.3985 0.4687,0.4297 1.1562,0.4297 0.7969,0 1.3516,-0.5547 0.5547,-0.5547 0.5547,-1.3829 0,-0.7968 -0.5078,-1.3046 -0.5079,-0.5078 -1.3047,-0.5078 -0.3282,0 -0.8125,0.125 l 0.125,-1 q 0.125,0.0156 0.1875,0.0156 0.7344,0 1.3203,-0.3828 0.5859,-0.3828 0.5859,-1.1797 0,-0.625 -0.4297,-1.0391 -0.4297,-0.414 -1.1015,-0.414 -0.6719,0 -1.1094,0.4218 -0.4375,0.4219 -0.5781,1.25 L 0.6562,-6.9375 q 0.2188,-1.1406 0.961,-1.7734 0.7422,-0.6329 1.8359,-0.6329 0.7657,0 1.4063,0.3282 0.6406,0.3281 0.9844,0.8906 0.3437,0.5625 0.3437,1.2031 0,0.5938 -0.3281,1.0938 -0.3282,0.5 -0.9532,0.7812 0.8126,0.2031 1.2735,0.7969 0.4609,0.5938 0.4609,1.5 0,1.2188 -0.8906,2.0703 -0.8906,0.8516 -2.25,0.8516 -1.2188,0 -2.0312,-0.7344 -0.8126,-0.7344 -0.9219,-1.8906 z"
       style="stroke:none" />
  </g>
  <g
     id="g326"
     style="font-size:16px;font-family:SansSerif;color-interpolation:linearRGB;color-rendering:optimizeQuality;image-rendering:optimizeQuality;text-rendering:geometricPrecision"
     transform="translate(634,140)">
    <path
       inkscape:connector-curvature="0"
       id="path324"
       d="m 1.2344,0 v -11.4531 h 3.9531 q 1.3281,0 2.0313,0.1562 0.9843,0.2344 1.6874,0.8281 0.9063,0.7657 1.3516,1.9532 0.4453,1.1875 0.4453,2.7187 0,1.3125 -0.3047,2.3203 -0.3046,1.0078 -0.7812,1.6641 Q 9.1406,-1.1562 8.5781,-0.7734 8.0156,-0.3906 7.2109,-0.1953 6.4062,0 5.375,0 Z M 2.75,-1.3594 h 2.4531 q 1.125,0 1.7735,-0.2109 Q 7.625,-1.7812 8,-2.1562 8.5469,-2.7031 8.8438,-3.6094 9.1406,-4.5156 9.1406,-5.8125 9.1406,-7.6094 8.5547,-8.5781 7.9688,-9.5469 7.125,-9.875 6.5156,-10.1094 5.1562,-10.1094 H 2.75 Z"
       style="stroke:none" />
  </g>
  <g
     id="g330"
     style="color-interpolation:linearRGB;stroke-width:0.68698347;stroke-linecap:butt;stroke-linejoin:round;stroke-miterlimit:10;stroke-dasharray:none;color-rendering:optimizeQuality;image-rendering:optimizeQuality;text-rendering:geometricPrecision"
     transform="translate(-86)">
    <line
       id="line328"
       y1="146.83411"
       x2="493.64441"
       x1="426.79999"
       style="fill:none;stroke-width:0.68698347;stroke-miterlimit:10;stroke-dasharray:none"
       y2="146.83411" />
  </g>
  <g
     id="g334"
     style="font-size:16px;font-family:SansSerif;color-interpolation:linearRGB;color-rendering:optimizeQuality;image-rendering:optimizeQuality;text-rendering:geometricPrecision"
     transform="translate(366,140)">
    <path
       inkscape:connector-curvature="0"
       id="path332"
       d="m 0.6719,-3 1.4687,-0.125 q 0.1719,1.0781 0.7656,1.6172 0.5938,0.539 1.4376,0.539 1.0156,0 1.7187,-0.7656 0.7031,-0.7656 0.7031,-2.0312 0,-1.2032 -0.6718,-1.8985 -0.6719,-0.6953 -1.7657,-0.6953 -0.6875,0 -1.2343,0.3125 -0.5469,0.3125 -0.8594,0.7969 l -1.3125,-0.1719 1.1093,-5.875 h 5.6876 v 1.3438 H 3.1562 l -0.625,3.0781 q 1.0313,-0.7188 2.1719,-0.7188 1.5,0 2.5313,1.0391 1.0312,1.0391 1.0312,2.6641 0,1.5625 -0.9062,2.6875 Q 6.25,0.2031 4.3438,0.2031 2.7812,0.2031 1.7969,-0.6797 0.8125,-1.5625 0.6719,-3 Z"
       style="stroke:none" />
  </g>
  <g
     id="g338"
     style="font-size:12.80000019px;font-family:SansSerif;color-interpolation:linearRGB;color-rendering:optimizeQuality;image-rendering:optimizeQuality;text-rendering:geometricPrecision"
     transform="translate(375,132)">
    <path
       inkscape:connector-curvature="0"
       id="path336"
       d="M 4.8438,0 H 3.7031 v -7.2812 q -0.4219,0.3906 -1.0859,0.789 -0.6641,0.3984 -1.1953,0.586 v -1.1094 q 0.9531,-0.4375 1.6719,-1.0782 0.7187,-0.6406 1.0156,-1.25 h 0.7344 z"
       style="stroke:none" />
  </g>
  <g
     id="g342"
     style="font-size:16px;font-family:SansSerif;color-interpolation:linearRGB;color-rendering:optimizeQuality;image-rendering:optimizeQuality;text-rendering:geometricPrecision"
     transform="translate(383,140)">
    <path
       inkscape:connector-curvature="0"
       id="path340"
       d="m 1.2344,0 v -11.4531 h 3.9531 q 1.3281,0 2.0313,0.1562 0.9843,0.2344 1.6874,0.8281 0.9063,0.7657 1.3516,1.9532 0.4453,1.1875 0.4453,2.7187 0,1.3125 -0.3047,2.3203 -0.3046,1.0078 -0.7812,1.6641 Q 9.1406,-1.1562 8.5781,-0.7734 8.0156,-0.3906 7.2109,-0.1953 6.4062,0 5.375,0 Z M 2.75,-1.3594 h 2.4531 q 1.125,0 1.7735,-0.2109 Q 7.625,-1.7812 8,-2.1562 8.5469,-2.7031 8.8438,-3.6094 9.1406,-4.5156 9.1406,-5.8125 9.1406,-7.6094 8.5547,-8.5781 7.9688,-9.5469 7.125,-9.875 6.5156,-10.1094 5.1562,-10.1094 H 2.75 Z"
       style="stroke:none" />
  </g>
  <line
     y2="313.58691"
     style="color-interpolation:linearRGB;fill:#ff0000;stroke:#ff092a;stroke-width:1.76699996;stroke-linecap:butt;stroke-linejoin:round;stroke-miterlimit:10;stroke-dasharray:none;stroke-opacity:1;color-rendering:optimizeQuality;image-rendering:optimizeQuality;text-rendering:geometricPrecision"
     x1="482.84442"
     x2="516.26672"
     y1="375.57501"
     id="line344" />
  <line
     y2="150.6707"
     style="color-interpolation:linearRGB;fill:none;stroke:#0000f9;stroke-width:1.51163149;stroke-linecap:butt;stroke-linejoin:round;stroke-miterlimit:10;stroke-dasharray:none;stroke-opacity:1;color-rendering:optimizeQuality;image-rendering:optimizeQuality;text-rendering:geometricPrecision"
     x1="516.26672"
     x2="482.84442"
     y1="313.58691"
     id="line346" />
  <line
     y2="146.84171"
     style="color-interpolation:linearRGB;fill:none;stroke:#0000f9;stroke-width:1.51163149;stroke-linecap:butt;stroke-linejoin:round;stroke-miterlimit:10;stroke-dasharray:none;stroke-opacity:1;color-rendering:optimizeQuality;image-rendering:optimizeQuality;text-rendering:geometricPrecision"
     x1="566.40002"
     x2="599.8222"
     y1="313.58691"
     id="line348" />
  <line
     y2="146.83411"
     style="color-interpolation:linearRGB;fill:#0000ff;stroke:#0000f9;stroke-width:1.51163149;stroke-linecap:butt;stroke-linejoin:round;stroke-miterlimit:10;stroke-dasharray:none;stroke-opacity:1;color-rendering:optimizeQuality;image-rendering:optimizeQuality;text-rendering:geometricPrecision"
     x1="516.26672"
     x2="399.28891"
     y1="313.58691"
     id="line350" />
  <g
     id="g5029"
     transform="translate(-150)">
    <g
       transform="translate(318,456)"
       style="font-size:24px;font-family:SansSerif;color-interpolation:linearRGB;color-rendering:optimizeQuality;image-rendering:optimizeQuality;text-rendering:geometricPrecision"
       id="g356">
      <path
         style="stroke:none"
         d="m 1.1562,-8.375 q 0,-4.2656 2.2969,-6.6875 2.2969,-2.4219 5.9375,-2.4219 2.375,0 4.2891,1.1328 1.9141,1.1328 2.9141,3.1719 1,2.0391 1,4.6172 0,2.6094 -1.0547,4.6719 -1.0547,2.0625 -2.9922,3.125 Q 11.6094,0.2969 9.375,0.2969 6.9531,0.2969 5.0391,-0.875 3.125,-2.0469 2.1406,-4.0781 1.1562,-6.1094 1.1562,-8.375 Z M 3.5,-8.3281 q 0,3.0937 1.6719,4.8828 1.6719,1.7891 4.1875,1.7891 2.5781,0 4.2344,-1.8047 1.6562,-1.8047 1.6562,-5.1172 0,-2.0938 -0.7109,-3.6641 -0.711,-1.5703 -2.0782,-2.4297 -1.3671,-0.8593 -3.0547,-0.8593 -2.4218,0 -4.164,1.6562 Q 3.5,-12.2188 3.5,-8.3281 Z M 20.2305,0 v -12.4531 h 1.8906 v 1.8906 q 0.7344,-1.3281 1.3516,-1.75 0.6171,-0.4219 1.3515,-0.4219 1.0625,0 2.1719,0.6875 l -0.7344,1.9531 q -0.7656,-0.4531 -1.5469,-0.4531 -0.6875,0 -1.2421,0.4141 -0.5547,0.414 -0.7891,1.1484 -0.3438,1.125 -0.3438,2.4688 V 0 Z m 12.6172,-1.8906 0.3125,1.8594 q -0.8907,0.2031 -1.5938,0.2031 -1.1562,0 -1.7891,-0.3672 -0.6328,-0.3672 -0.8906,-0.9609 -0.2578,-0.5938 -0.2578,-2.4844 v -7.1719 H 27.082 v -1.6406 h 1.5469 v -3.0781 l 2.0938,-1.2657 v 4.3438 h 2.125 v 1.6406 h -2.125 v 7.2813 q 0,0.9062 0.1171,1.164 0.1172,0.2578 0.3672,0.4063 0.25,0.1484 0.7188,0.1484 0.3437,0 0.9219,-0.0781 z M 34.9062,0 v -17.1875 h 2.1094 v 6.1719 q 1.4844,-1.7188 3.7344,-1.7188 1.375,0 2.3984,0.5469 1.0235,0.5469 1.461,1.5078 0.4375,0.9609 0.4375,2.7891 V 0 h -2.1094 v -7.8906 q 0,-1.5782 -0.6875,-2.2969 -0.6875,-0.7187 -1.9375,-0.7187 -0.9375,0 -1.7656,0.4843 -0.8281,0.4844 -1.1797,1.3125 -0.3516,0.8282 -0.3516,2.2969 V 0 Z m 12.5665,-6.2188 q 0,-3.4687 1.9218,-5.125 1.6094,-1.3906 3.9219,-1.3906 2.5625,0 4.1875,1.6875 1.625,1.6875 1.625,4.6407 0,2.4062 -0.7187,3.7812 -0.7188,1.375 -2.0938,2.1406 -1.375,0.7656 -3,0.7656 -2.625,0 -4.2344,-1.6796 -1.6093,-1.6797 -1.6093,-4.8204 z m 2.1718,0 q 0,2.3907 1.0391,3.5782 1.0391,1.1875 2.6328,1.1875 1.5625,0 2.6094,-1.1953 1.0469,-1.1954 1.0469,-3.6485 0,-2.3125 -1.0547,-3.5 -1.0547,-1.1875 -2.6016,-1.1875 -1.5937,0 -2.6328,1.1875 -1.0391,1.1875 -1.0391,3.5781 z M 61.6016,0 v -17.1875 h 2.1093 v 6.1719 q 1.4844,-1.7188 3.7344,-1.7188 1.375,0 2.3985,0.5469 1.0234,0.5469 1.4609,1.5078 0.4375,0.9609 0.4375,2.7891 V 0 h -2.1094 v -7.8906 q 0,-1.5782 -0.6875,-2.2969 -0.6875,-0.7187 -1.9375,-0.7187 -0.9375,0 -1.7656,0.4843 -0.8281,0.4844 -1.1797,1.3125 -0.3516,0.8282 -0.3516,2.2969 V 0 Z m 21.8789,-4.0156 2.1718,0.2812 q -0.5156,1.9063 -1.9062,2.961 -1.3906,1.0546 -3.5625,1.0546 -2.7344,0 -4.3359,-1.6796 -1.6016,-1.6797 -1.6016,-4.7266 0,-3.1406 1.6172,-4.875 1.6172,-1.7344 4.1953,-1.7344 2.5,0 4.0859,1.7032 1.586,1.7031 1.586,4.7812 0,0.1875 -0.0157,0.5625 h -9.2812 q 0.1094,2.0469 1.1562,3.1406 1.0469,1.0938 2.6094,1.0938 1.1563,0 1.9766,-0.6094 0.8203,-0.6094 1.3047,-1.9531 z M 76.543,-7.4219 h 6.9531 Q 83.3555,-8.9844 82.6992,-9.7812 81.6992,-11 80.0898,-11 q -1.4531,0 -2.4453,0.9766 -0.9922,0.9765 -1.1015,2.6015 z M 88.25,0 v -17.1875 h 2.1094 V 0 Z m 5.3945,-14.75 v -2.4375 h 2.1094 v 2.4375 z m 0,14.75 v -12.4531 h 2.1094 V 0 Z m 13.4727,0 v -1.8281 q -1.4531,2.1093 -3.9375,2.1093 -1.1094,0 -2.0625,-0.4218 -0.9531,-0.4219 -1.4141,-1.0625 -0.4609,-0.6407 -0.6484,-1.5625 -0.1406,-0.625 -0.1406,-1.9688 v -7.7187 h 2.1093 v 6.9062 q 0,1.6563 0.1407,2.2344 0.1875,0.8281 0.8359,1.3047 0.6484,0.4766 1.6016,0.4766 0.9375,0 1.7734,-0.4922 0.8359,-0.4922 1.1797,-1.3282 0.3437,-0.8359 0.3437,-2.4296 v -6.6719 h 2.1094 V 0 Z m 5.1914,0 v -12.4531 h 1.8906 v 1.75 q 0.5938,-0.9063 1.5625,-1.4688 0.9688,-0.5625 2.2188,-0.5625 1.375,0 2.2578,0.5782 0.8828,0.5781 1.2578,1.6093 1.4687,-2.1875 3.8437,-2.1875 1.8438,0 2.8438,1.0313 1,1.0312 1,3.1562 V 0 h -2.1094 v -7.8438 q 0,-1.2656 -0.2031,-1.8203 -0.2031,-0.5547 -0.7422,-0.8984 -0.5391,-0.3437 -1.2578,-0.3437 -1.3125,0 -2.1797,0.875 -0.8672,0.875 -0.8672,2.7968 V 0 h -2.1094 v -8.0938 q 0,-1.4062 -0.5156,-2.1093 -0.5156,-0.7031 -1.6875,-0.7031 -0.8906,0 -1.6484,0.4687 -0.7578,0.4687 -1.1016,1.375 -0.3437,0.9063 -0.3437,2.6094 V 0 Z"
         id="path354"
         inkscape:connector-curvature="0" />
    </g>
    <g
       transform="translate(456,456)"
       style="font-size:24px;font-family:mwa_cmsy10;color-interpolation:linearRGB;color-rendering:optimizeQuality;image-rendering:optimizeQuality;text-rendering:geometricPrecision"
       id="g360">
      <path
         style="stroke:none"
         d="m 5.5156,4.2188 v -17.5626 q -0.5312,0.8907 -1.2656,1.5704 -0.7344,0.6796 -1.6328,1.1484 -0.8984,0.4688 -1.8828,0.6875 -0.0469,0.0156 -0.0625,0.0156 -0.2657,0 -0.2657,-0.2031 v -0.5312 q 0,-0.1563 0.1719,-0.2188 1.3438,-0.3125 2.4453,-1.1016 1.1016,-0.789 1.8047,-1.9296 0.7031,-1.1407 0.9063,-2.5313 0.0468,-0.1094 0.1172,-0.1641 0.0703,-0.0546 0.1484,-0.0546 0.0781,0 0.1641,0.0624 0.0859,0.0626 0.1015,0.1563 0.2813,2.0313 1.7032,3.5703 1.4218,1.5391 3.4531,1.9922 0.0781,0.0156 0.125,0.0938 0.0469,0.0781 0.0469,0.125 v 0.5312 q 0,0.0625 -0.086,0.1328 -0.0859,0.0703 -0.1797,0.0703 -0.0156,0 -0.0625,-0.0156 Q 10.2812,-10.1562 9.3828,-10.625 8.4844,-11.0938 7.75,-11.7734 7.0156,-12.4531 6.4844,-13.3438 V 4.2188 q 0,0.1874 -0.1563,0.3124 Q 6.1719,4.6562 6,4.6562 5.8281,4.6562 5.6719,4.5312 5.5156,4.4062 5.5156,4.2188 Z"
         id="path358"
         inkscape:connector-curvature="0" />
    </g>
    <g
       transform="translate(468,456)"
       style="font-size:24px;font-family:mwa_cmsy10;color-interpolation:linearRGB;color-rendering:optimizeQuality;image-rendering:optimizeQuality;text-rendering:geometricPrecision"
       id="g364">
      <path
         style="stroke:none"
         d="M 5.7344,4.4375 Q 5.5312,3.0469 4.8281,1.9062 4.125,0.7656 3.0234,-0.0312 1.9219,-0.8281 0.5781,-1.125 0.4062,-1.1875 0.4062,-1.3438 V -1.875 q 0,-0.0781 0.0938,-0.1484 0.0938,-0.0704 0.1719,-0.0704 0.0156,0 0.0625,0.0313 1.5,0.3125 2.7422,1.2031 1.2422,0.8906 2.039,2.2032 v -17.5626 q 0,-0.1874 0.1563,-0.3124 0.1562,-0.125 0.3281,-0.125 0.1719,0 0.3281,0.125 0.1563,0.125 0.1563,0.3124 V 1.3438 q 0.7968,-1.3126 2.0547,-2.2032 1.2578,-0.8906 2.7265,-1.2031 0.0469,-0.0313 0.0625,-0.0313 0.0938,0 0.1797,0.0626 0.086,0.0624 0.086,0.1562 v 0.5312 q 0,0.0469 -0.0469,0.1172 Q 11.5,-1.1562 11.4219,-1.125 9.4062,-0.6875 7.9766,0.8594 6.5469,2.4062 6.2656,4.4375 6.2188,4.6562 6,4.6562 q -0.2031,0 -0.2656,-0.2187 z"
         id="path362"
         inkscape:connector-curvature="0" />
    </g>
  </g>
  <g
     id="g5404"
     transform="translate(16)">
    <g
       transform="translate(669,456)"
       style="font-size:24px;font-family:SansSerif;color-interpolation:linearRGB;color-rendering:optimizeQuality;image-rendering:optimizeQuality;text-rendering:geometricPrecision"
       id="g368">
      <path
         style="stroke:none"
         d="m 1.8594,0 v -17.1875 h 6.4687 q 1.7188,0 2.625,0.1719 1.2657,0.2031 2.1172,0.7968 0.8516,0.5938 1.375,1.6641 0.5235,1.0703 0.5235,2.3359 0,2.2032 -1.3985,3.7188 -1.3984,1.5156 -5.0391,1.5156 H 4.125 V 0 Z M 4.125,-9.0156 h 4.4375 q 2.2031,0 3.1328,-0.8203 0.9297,-0.8203 0.9297,-2.3047 0,-1.0782 -0.5469,-1.8438 Q 11.5312,-14.75 10.6406,-15 10.0625,-15.1562 8.5156,-15.1562 H 4.125 Z m 21.5859,7.4844 q -1.1718,0.9843 -2.2578,1.3984 -1.0859,0.414 -2.3203,0.414 -2.0469,0 -3.1484,-1 -1.1016,-1 -1.1016,-2.5624 0,-0.9219 0.4141,-1.6719 0.414,-0.75 1.0859,-1.211 0.6719,-0.4609 1.5156,-0.6953 0.625,-0.1562 1.875,-0.3125 2.5625,-0.3125 3.7657,-0.7343 0.0156,-0.4219 0.0156,-0.5469 0,-1.2813 -0.6094,-1.8125 -0.7969,-0.7188 -2.3906,-0.7188 -1.5,0 -2.2031,0.5235 -0.7032,0.5234 -1.0469,1.8515 l -2.0625,-0.2812 q 0.2812,-1.3282 0.9219,-2.1406 0.6406,-0.8126 1.8593,-1.2579 1.2188,-0.4453 2.8282,-0.4453 1.5937,0 2.5937,0.375 1,0.375 1.4688,0.9453 0.4687,0.5703 0.6562,1.4453 0.0938,0.5313 0.0938,1.9376 v 2.8124 q 0,2.9376 0.1406,3.7188 0.1406,0.7812 0.5312,1.5 H 26.1328 Q 25.8047,-0.6562 25.7109,-1.5312 Z M 25.5391,-6.25 q -1.1563,0.4688 -3.4532,0.7969 -1.2968,0.1875 -1.8359,0.4219 -0.5391,0.2343 -0.8281,0.6874 -0.2891,0.4532 -0.2891,1 0,0.8438 0.6328,1.4063 0.6328,0.5625 1.8672,0.5625 1.2188,0 2.1719,-0.5312 0.9531,-0.5313 1.3906,-1.4532 0.3438,-0.7187 0.3438,-2.1094 z M 30.918,0 v -12.4531 h 1.8906 v 1.8906 q 0.7344,-1.3281 1.3516,-1.75 0.6171,-0.4219 1.3515,-0.4219 1.0625,0 2.1719,0.6875 l -0.7344,1.9531 q -0.7656,-0.4531 -1.5469,-0.4531 -0.6875,0 -1.2421,0.4141 -0.5547,0.414 -0.7891,1.1484 -0.3438,1.125 -0.3438,2.4688 V 0 Z m 16.1328,-1.5312 q -1.1719,0.9843 -2.2578,1.3984 -1.086,0.414 -2.3203,0.414 -2.0469,0 -3.1485,-1 -1.1015,-1 -1.1015,-2.5624 0,-0.9219 0.414,-1.6719 0.4141,-0.75 1.086,-1.211 0.6718,-0.4609 1.5156,-0.6953 0.625,-0.1562 1.875,-0.3125 2.5625,-0.3125 3.7656,-0.7343 0.0156,-0.4219 0.0156,-0.5469 0,-1.2813 -0.6093,-1.8125 -0.7969,-0.7188 -2.3907,-0.7188 -1.5,0 -2.2031,0.5235 -0.7031,0.5234 -1.0469,1.8515 L 38.582,-8.8906 q 0.2813,-1.3282 0.9219,-2.1406 0.6406,-0.8126 1.8594,-1.2579 1.2187,-0.4453 2.8281,-0.4453 1.5938,0 2.5938,0.375 1,0.375 1.4687,0.9453 0.4688,0.5703 0.6563,1.4453 0.0937,0.5313 0.0937,1.9376 v 2.8124 q 0,2.9376 0.1406,3.7188 0.1407,0.7812 0.5313,1.5 H 47.4727 Q 47.1445,-0.6562 47.0508,-1.5312 Z M 46.8789,-6.25 q -1.1562,0.4688 -3.4531,0.7969 -1.2969,0.1875 -1.836,0.4219 -0.539,0.2343 -0.8281,0.6874 -0.289,0.4532 -0.289,1 0,0.8438 0.6328,1.4063 0.6328,0.5625 1.8672,0.5625 1.2187,0 2.1718,-0.5312 0.9532,-0.5313 1.3907,-1.4532 0.3437,-0.7187 0.3437,-2.1094 z M 52.2734,0 v -17.1875 h 2.1094 v 6.1719 q 1.4844,-1.7188 3.7344,-1.7188 1.375,0 2.3984,0.5469 1.0235,0.5469 1.461,1.5078 0.4375,0.9609 0.4375,2.7891 V 0 h -2.1094 v -7.8906 q 0,-1.5782 -0.6875,-2.2969 -0.6875,-0.7187 -1.9375,-0.7187 -0.9375,0 -1.7656,0.4843 -0.8282,0.4844 -1.1797,1.3125 -0.3516,0.8282 -0.3516,2.2969 V 0 Z m 21.8789,-4.0156 2.1719,0.2812 q -0.5156,1.9063 -1.9062,2.961 -1.3907,1.0546 -3.5625,1.0546 -2.7344,0 -4.336,-1.6796 -1.6015,-1.6797 -1.6015,-4.7266 0,-3.1406 1.6172,-4.875 1.6171,-1.7344 4.1953,-1.7344 2.5,0 4.0859,1.7032 1.5859,1.7031 1.5859,4.7812 0,0.1875 -0.0156,0.5625 h -9.2812 q 0.1093,2.0469 1.1562,3.1406 1.0469,1.0938 2.6094,1.0938 1.1562,0 1.9766,-0.6094 0.8203,-0.6094 1.3046,-1.9531 z M 67.2148,-7.4219 H 74.168 Q 74.0273,-8.9844 73.3711,-9.7812 72.3711,-11 70.7617,-11 q -1.4531,0 -2.4453,0.9766 -0.9922,0.9765 -1.1016,2.6015 z M 78.9219,0 v -17.1875 h 2.1093 V 0 Z m 5.3945,-14.75 v -2.4375 h 2.1094 v 2.4375 z m 0,14.75 v -12.4531 h 2.1094 V 0 Z m 13.4727,0 v -1.8281 q -1.4532,2.1093 -3.9375,2.1093 -1.1094,0 -2.0625,-0.4218 -0.9532,-0.4219 -1.4141,-1.0625 -0.4609,-0.6407 -0.6484,-1.5625 -0.1407,-0.625 -0.1407,-1.9688 v -7.7187 h 2.1094 v 6.9062 q 0,1.6563 0.1406,2.2344 0.1875,0.8281 0.836,1.3047 0.6484,0.4766 1.6015,0.4766 0.9375,0 1.7735,-0.4922 0.8359,-0.4922 1.1797,-1.3282 0.3437,-0.8359 0.3437,-2.4296 v -6.6719 h 2.1094 V 0 Z m 5.1914,0 v -12.4531 h 1.8906 v 1.75 q 0.5937,-0.9063 1.5625,-1.4688 0.9687,-0.5625 2.2187,-0.5625 1.375,0 2.2579,0.5782 0.8828,0.5781 1.2578,1.6093 1.4687,-2.1875 3.8437,-2.1875 1.8438,0 2.8438,1.0313 1,1.0312 1,3.1562 V 0 h -2.1094 v -7.8438 q 0,-1.2656 -0.2031,-1.8203 -0.2032,-0.5547 -0.7422,-0.8984 -0.5391,-0.3437 -1.2578,-0.3437 -1.3125,0 -2.1797,0.875 -0.8672,0.875 -0.8672,2.7968 V 0 h -2.1094 v -8.0938 q 0,-1.4062 -0.5156,-2.1093 -0.5156,-0.7031 -1.6875,-0.7031 -0.8906,0 -1.6484,0.4687 -0.7579,0.4687 -1.1016,1.375 -0.3438,0.9063 -0.3438,2.6094 V 0 Z"
         id="path366"
         inkscape:connector-curvature="0" />
    </g>
    <g
       transform="translate(798,456)"
       style="font-size:24px;font-family:mwa_cmsy10;color-interpolation:linearRGB;color-rendering:optimizeQuality;image-rendering:optimizeQuality;text-rendering:geometricPrecision"
       id="g372">
      <path
         style="stroke:none"
         d="m 5.5156,4.2188 v -17.5626 q -0.5312,0.8907 -1.2656,1.5704 -0.7344,0.6796 -1.6328,1.1484 -0.8984,0.4688 -1.8828,0.6875 -0.0469,0.0156 -0.0625,0.0156 -0.2657,0 -0.2657,-0.2031 v -0.5312 q 0,-0.1563 0.1719,-0.2188 1.3438,-0.3125 2.4453,-1.1016 1.1016,-0.789 1.8047,-1.9296 0.7031,-1.1407 0.9063,-2.5313 0.0468,-0.1094 0.1172,-0.1641 0.0703,-0.0546 0.1484,-0.0546 0.0781,0 0.1641,0.0624 0.0859,0.0626 0.1015,0.1563 0.2813,2.0313 1.7032,3.5703 1.4218,1.5391 3.4531,1.9922 0.0781,0.0156 0.125,0.0938 0.0469,0.0781 0.0469,0.125 v 0.5312 q 0,0.0625 -0.086,0.1328 -0.0859,0.0703 -0.1797,0.0703 -0.0156,0 -0.0625,-0.0156 Q 10.2812,-10.1562 9.3828,-10.625 8.4844,-11.0938 7.75,-11.7734 7.0156,-12.4531 6.4844,-13.3438 V 4.2188 q 0,0.1874 -0.1563,0.3124 Q 6.1719,4.6562 6,4.6562 5.8281,4.6562 5.6719,4.5312 5.5156,4.4062 5.5156,4.2188 Z"
         id="path370"
         inkscape:connector-curvature="0" />
    </g>
    <g
       transform="translate(810,456)"
       style="font-size:24px;font-family:mwa_cmsy10;color-interpolation:linearRGB;color-rendering:optimizeQuality;image-rendering:optimizeQuality;text-rendering:geometricPrecision"
       id="g376">
      <path
         style="stroke:none"
         d="m 5.5156,4.2188 v -17.5626 q -0.5312,0.8907 -1.2656,1.5704 -0.7344,0.6796 -1.6328,1.1484 -0.8984,0.4688 -1.8828,0.6875 -0.0469,0.0156 -0.0625,0.0156 -0.2657,0 -0.2657,-0.2031 v -0.5312 q 0,-0.1563 0.1719,-0.2188 1.3438,-0.3125 2.4453,-1.1016 1.1016,-0.789 1.8047,-1.9296 0.7031,-1.1407 0.9063,-2.5313 0.0468,-0.1094 0.1172,-0.1641 0.0703,-0.0546 0.1484,-0.0546 0.0781,0 0.1641,0.0624 0.0859,0.0626 0.1015,0.1563 0.2813,2.0313 1.7032,3.5703 1.4218,1.5391 3.4531,1.9922 0.0781,0.0156 0.125,0.0938 0.0469,0.0781 0.0469,0.125 v 0.5312 q 0,0.0625 -0.086,0.1328 -0.0859,0.0703 -0.1797,0.0703 -0.0156,0 -0.0625,-0.0156 Q 10.2812,-10.1562 9.3828,-10.625 8.4844,-11.0938 7.75,-11.7734 7.0156,-12.4531 6.4844,-13.3438 V 4.2188 q 0,0.1874 -0.1563,0.3124 Q 6.1719,4.6562 6,4.6562 5.8281,4.6562 5.6719,4.5312 5.5156,4.4062 5.5156,4.2188 Z"
         id="path374"
         inkscape:connector-curvature="0" />
    </g>
  </g>
  <g
     id="g380"
     style="font-size:13.33329964px;font-family:SansSerif;color-interpolation:linearRGB;color-rendering:optimizeQuality;image-rendering:optimizeQuality;text-rendering:geometricPrecision"
     transform="translate(499.5555,353.925)">
    <path
       inkscape:connector-curvature="0"
       id="path378"
       d="M 7.6406,2.2344 8.875,2.5469 Q 8.4844,4.0625 7.4766,4.8594 6.4688,5.6562 5.0156,5.6562 q -1.5,0 -2.4453,-0.6093 Q 1.625,4.4375 1.1328,3.2734 0.6406,2.1094 0.6406,0.7812 q 0,-1.4531 0.5625,-2.539 0.5625,-1.086 1.586,-1.6484 1.0234,-0.5626 2.2578,-0.5626 1.3906,0 2.3437,0.711 0.9532,0.7109 1.3282,2.0078 L 7.5,-0.9688 Q 7.1719,-1.9844 6.5625,-2.4453 5.9531,-2.9062 5.0156,-2.9062 q -1.0781,0 -1.7968,0.5156 -0.7188,0.5156 -1.0079,1.375 -0.289,0.8594 -0.289,1.7812 0,1.1875 0.3437,2.0782 0.3438,0.8906 1.0703,1.3281 0.7266,0.4375 1.586,0.4375 1.0312,0 1.75,-0.6016 Q 7.3906,3.4062 7.6406,2.2344 Z M 10.0514,2.125 q 0,-1.875 1.0312,-2.7656 0.875,-0.75 2.125,-0.75 1.3906,0 2.2734,0.9062 0.8829,0.9063 0.8829,2.5156 0,1.2969 -0.3907,2.0469 -0.3906,0.75 -1.1406,1.1641 -0.75,0.414 -1.625,0.414 -1.4219,0 -2.2891,-0.9062 -0.8671,-0.9062 -0.8671,-2.625 z m 1.1718,0 q 0,1.2969 0.5625,1.9453 0.5625,0.6485 1.4219,0.6485 0.8438,0 1.4141,-0.6485 0.5703,-0.6484 0.5703,-1.9765 0,-1.25 -0.5703,-1.8985 -0.5703,-0.6484 -1.4141,-0.6484 -0.8594,0 -1.4219,0.6406 -0.5625,0.6406 -0.5625,1.9375 z m 6.2319,0 q 0,-1.875 1.0313,-2.7656 0.875,-0.75 2.125,-0.75 1.3906,0 2.2734,0.9062 0.8828,0.9063 0.8828,2.5156 0,1.2969 -0.3906,2.0469 -0.3906,0.75 -1.1406,1.1641 -0.75,0.414 -1.625,0.414 -1.4219,0 -2.2891,-0.9062 -0.8672,-0.9062 -0.8672,-2.625 z m 1.1719,0 q 0,1.2969 0.5625,1.9453 0.5625,0.6485 1.4219,0.6485 0.8437,0 1.4141,-0.6485 0.5703,-0.6484 0.5703,-1.9765 0,-1.25 -0.5703,-1.8985 -0.5704,-0.6484 -1.4141,-0.6484 -0.8594,0 -1.4219,0.6406 Q 18.627,0.8281 18.627,2.125 Z M 25.2495,5.5 v -9.3125 h 1.1407 V 5.5 Z m 2.9889,-7.9844 v -1.3281 h 1.1406 v 1.3281 z m 0,7.9844 V -1.2344 H 29.379 V 5.5 Z m 2.9576,0 v -6.7344 h 1.0313 v 0.9532 q 0.7343,-1.1094 2.1406,-1.1094 0.6094,0 1.1172,0.2187 0.5078,0.2188 0.7656,0.5703 0.2578,0.3516 0.3516,0.8516 0.0625,0.3125 0.0625,1.1094 V 5.5 H 35.5241 V 1.4062 q 0,-0.7031 -0.1328,-1.0468 -0.1328,-0.3438 -0.4687,-0.5547 -0.336,-0.2109 -0.7891,-0.2109 -0.7344,0 -1.2656,0.4609 -0.5313,0.4609 -0.5313,1.7578 V 5.5 Z m 7.185,0.5625 1.125,0.1563 q 0.0625,0.5156 0.375,0.75 0.4375,0.3281 1.1719,0.3281 0.7813,0 1.2188,-0.3203 0.4375,-0.3204 0.5781,-0.8985 0.0937,-0.3437 0.0937,-1.4531 -0.75,0.875 -1.875,0.875 -1.3906,0 -2.1484,-1 -0.7578,-1 -0.7578,-2.4062 0,-0.9688 0.3516,-1.7813 0.3515,-0.8125 1.0078,-1.2578 0.6562,-0.4453 1.5625,-0.4453 1.1875,0 1.9687,0.9687 v -0.8125 h 1.0469 v 5.8125 q 0,1.5781 -0.3203,2.2344 -0.3203,0.6563 -1.0156,1.0391 -0.6954,0.3828 -1.711,0.3828 -1.2031,0 -1.9453,-0.5391 Q 38.3654,7.1562 38.381,6.0625 Z m 0.9532,-4.0469 q 0,1.3125 0.5234,1.9219 0.5234,0.6094 1.3203,0.6094 0.7969,0 1.3281,-0.6016 0.5313,-0.6015 0.5313,-1.8984 0,-1.2344 -0.5469,-1.8672 -0.5469,-0.6328 -1.3281,-0.6328 -0.7656,0 -1.2969,0.625 -0.5312,0.625 -0.5312,1.8437 z m 12.868,2.4688 0.1563,1 q -0.4844,0.1094 -0.8594,0.1094 -0.625,0 -0.9688,-0.2032 Q 50.1866,5.1875 50.046,4.8672 49.9053,4.5469 49.9053,3.5312 v -3.8906 h -0.8281 v -0.875 h 0.8281 v -1.6718 l 1.1407,-0.6876 v 2.3594 h 1.1562 v 0.875 H 51.046 v 3.9532 q 0,0.4843 0.0625,0.625 0.0625,0.1406 0.1953,0.2187 0.1328,0.0781 0.3828,0.0781 0.2031,0 0.5156,-0.0312 z M 53.3852,5.5 v -6.7344 h 1.0313 v 1.0156 q 0.3906,-0.7187 0.7265,-0.9453 0.336,-0.2265 0.7266,-0.2265 0.5781,0 1.1719,0.3594 l -0.3907,1.0624 q -0.4218,-0.25 -0.8281,-0.25 -0.375,0 -0.6797,0.2266 Q 54.8383,0.2344 54.7133,0.6406 54.5258,1.25 54.5258,1.9688 V 5.5 Z m 8.8394,-0.8281 q -0.625,0.5312 -1.2109,0.7578 -0.5859,0.2265 -1.2578,0.2265 -1.125,0 -1.7188,-0.5468 -0.5937,-0.5469 -0.5937,-1.3906 0,-0.4844 0.2266,-0.8985 0.2265,-0.4141 0.5937,-0.6641 0.3672,-0.25 0.8203,-0.375 0.3281,-0.0781 1.0156,-0.1718 1.375,-0.1563 2.0313,-0.3906 0.0156,-0.2344 0.0156,-0.2969 0,-0.7031 -0.3281,-0.9844 -0.4375,-0.3906 -1.2969,-0.3906 -0.8125,0 -1.1953,0.2812 -0.3828,0.2813 -0.5703,1 L 57.6465,0.6875 q 0.1406,-0.7187 0.4922,-1.1641 0.3516,-0.4453 1.0156,-0.6796 0.6641,-0.2344 1.5235,-0.2344 0.875,0 1.414,0.2031 0.5391,0.2031 0.7891,0.5078 0.25,0.3047 0.3594,0.7735 0.0468,0.2968 0.0468,1.0624 v 1.5157 q 0,1.5937 0.0782,2.0156 0.0781,0.4219 0.2812,0.8125 H 62.459 Q 62.2871,5.1406 62.2246,4.6719 Z M 62.1309,2.1094 q -0.625,0.2656 -1.8594,0.4375 -0.7031,0.1093 -1,0.2343 -0.2969,0.125 -0.4531,0.3672 -0.1563,0.2422 -0.1563,0.5391 0,0.4531 0.3438,0.7578 0.3437,0.3047 1.0156,0.3047 0.6563,0 1.1719,-0.2891 0.5156,-0.289 0.7656,-0.789 0.1719,-0.375 0.1719,-1.1407 z M 65.2378,5.5 v -6.7344 h 1.0312 v 0.9532 q 0.7344,-1.1094 2.1407,-1.1094 0.6093,0 1.1172,0.2187 0.5078,0.2188 0.7656,0.5703 0.2578,0.3516 0.3515,0.8516 0.0625,0.3125 0.0625,1.1094 V 5.5 H 69.5659 V 1.4062 q 0,-0.7031 -0.1328,-1.0468 -0.1328,-0.3438 -0.4687,-0.5547 -0.336,-0.2109 -0.7891,-0.2109 -0.7344,0 -1.2656,0.4609 -0.5313,0.4609 -0.5313,1.7578 V 5.5 Z m 6.9506,-2.0156 1.125,-0.1719 q 0.0938,0.6719 0.5313,1.0391 0.4375,0.3672 1.2187,0.3672 0.7813,0 1.1641,-0.3204 0.3828,-0.3203 0.3828,-0.7578 0,-0.3906 -0.3437,-0.6094 Q 76.0322,2.875 75.0947,2.6406 73.8447,2.3281 73.3603,2.0938 72.8759,1.8594 72.6259,1.4531 q -0.25,-0.4062 -0.25,-0.9062 0,-0.4531 0.2032,-0.836 0.2031,-0.3828 0.5625,-0.6328 0.2656,-0.2031 0.7265,-0.3359 0.461,-0.1328 0.9922,-0.1328 0.7813,0 1.3828,0.2265 0.6016,0.2266 0.8907,0.6172 0.289,0.3907 0.3984,1.0469 l -1.125,0.1562 q -0.0781,-0.5312 -0.4375,-0.8203 -0.3594,-0.289 -1.0313,-0.289 -0.7812,0 -1.125,0.2578 -0.3437,0.2578 -0.3437,0.6172 0,0.2187 0.1406,0.3906 0.1406,0.1875 0.4375,0.3125 0.1719,0.0625 1.0156,0.2812 1.2188,0.3282 1.6954,0.5313 0.4765,0.2031 0.75,0.6016 0.2734,0.3984 0.2734,0.9765 0,0.5782 -0.3359,1.0782 -0.336,0.5 -0.961,0.7812 -0.625,0.2812 -1.4219,0.2812 -1.3125,0 -2,-0.5468 -0.6875,-0.5469 -0.875,-1.625 z m 7.1094,-5.9688 v -1.3281 h 1.1406 v 1.3281 z m 0,7.9844 v -6.7344 h 1.1406 V 5.5 Z m 5.4576,-1.0156 0.1563,1 q -0.4844,0.1094 -0.8594,0.1094 -0.625,0 -0.9687,-0.2032 Q 82.7398,5.1875 82.5992,4.8672 82.4586,4.5469 82.4586,3.5312 v -3.8906 h -0.8282 v -0.875 h 0.8282 v -1.6718 l 1.1406,-0.6876 v 2.3594 h 1.1562 v 0.875 h -1.1562 v 3.9532 q 0,0.4843 0.0625,0.625 0.0625,0.1406 0.1953,0.2187 0.1328,0.0781 0.3828,0.0781 0.2031,0 0.5156,-0.0312 z m 1.1987,-6.9688 v -1.3281 h 1.1406 v 1.3281 z m 0,7.9844 v -6.7344 h 1.1406 V 5.5 Z m 2.5357,-3.375 q 0,-1.875 1.0313,-2.7656 0.875,-0.75 2.125,-0.75 1.3906,0 2.2734,0.9062 0.8828,0.9063 0.8828,2.5156 0,1.2969 -0.3906,2.0469 -0.3906,0.75 -1.1406,1.1641 -0.75,0.414 -1.625,0.414 -1.4219,0 -2.2891,-0.9062 -0.8672,-0.9062 -0.8672,-2.625 z m 1.1719,0 q 0,1.2969 0.5625,1.9453 0.5625,0.6485 1.4219,0.6485 0.8437,0 1.414,-0.6485 0.5703,-0.6484 0.5703,-1.9765 0,-1.25 -0.5703,-1.8985 -0.5703,-0.6484 -1.414,-0.6484 -0.8594,0 -1.4219,0.6406 -0.5625,0.6406 -0.5625,1.9375 z M 96.3155,5.5 v -6.7344 h 1.0312 v 0.9532 q 0.7344,-1.1094 2.1406,-1.1094 0.6094,0 1.1172,0.2187 0.5078,0.2188 0.7656,0.5703 0.2579,0.3516 0.3516,0.8516 0.0625,0.3125 0.0625,1.1094 V 5.5 h -1.1406 V 1.4062 q 0,-0.7031 -0.1328,-1.0468 -0.1328,-0.3438 -0.4688,-0.5547 -0.3359,-0.2109 -0.789,-0.2109 -0.7344,0 -1.2657,0.4609 -0.5312,0.4609 -0.5312,1.7578 V 5.5 Z m 15.0868,0 h -1.1407 v -7.2812 q -0.4218,0.3906 -1.0859,0.789 -0.6641,0.3984 -1.1953,0.586 v -1.1094 q 0.9531,-0.4375 1.6719,-1.0782 0.7187,-0.6406 1.0156,-1.25 h 0.7344 z m 3.1069,-4.5938 q 0,-1.6406 0.3359,-2.6484 0.3359,-1.0078 1.0078,-1.5547 0.6719,-0.5469 1.6875,-0.5469 0.75,0 1.3125,0.3047 0.5625,0.3047 0.9297,0.8672 0.3672,0.5625 0.5781,1.3828 0.211,0.8203 0.211,2.1953 0,1.6407 -0.336,2.6485 -0.3359,1.0078 -1.0078,1.5547 -0.6719,0.5468 -1.6875,0.5468 -1.3437,0 -2.125,-0.9687 -0.9062,-1.1563 -0.9062,-3.7813 z m 1.1718,0 q 0,2.2969 0.5313,3.0547 0.5312,0.7579 1.3281,0.7579 0.7813,0 1.3203,-0.7579 0.5391,-0.7578 0.5391,-3.0547 0,-2.2968 -0.5391,-3.0468 -0.539,-0.75 -1.3359,-0.75 -0.7813,0 -1.2656,0.6562 -0.5782,0.8594 -0.5782,3.1406 z m 7.9819,-0.4531 q -0.7031,-0.2656 -1.0468,-0.7422 -0.3438,-0.4765 -0.3438,-1.1484 0,-1.0156 0.7266,-1.7109 0.7265,-0.6954 1.9453,-0.6954 1.2187,0 1.9609,0.711 0.7422,0.7109 0.7422,1.7266 0,0.6406 -0.3437,1.1171 -0.3438,0.4766 -1.0313,0.7422 0.8594,0.2813 1.3047,0.9063 0.4453,0.625 0.4453,1.4844 0,1.1874 -0.8437,2 -0.8438,0.8124 -2.2188,0.8124 -1.375,0 -2.2187,-0.8124 -0.8438,-0.8126 -0.8438,-2.0313 0,-0.9063 0.4609,-1.5234 0.461,-0.6172 1.3047,-0.836 z m -0.2343,-1.9375 q 0,0.6563 0.4296,1.0782 0.4297,0.4218 1.1016,0.4218 0.6719,0 1.0938,-0.414 0.4218,-0.4141 0.4218,-1.0235 0,-0.625 -0.4375,-1.0547 -0.4375,-0.4296 -1.0781,-0.4296 -0.6562,0 -1.0937,0.4218 -0.4375,0.4219 -0.4375,1 z m -0.3594,4.2969 q 0,0.4844 0.2344,0.9453 0.2343,0.461 0.6875,0.711 0.4531,0.25 0.9843,0.25 0.8125,0 1.3438,-0.5235 0.5312,-0.5234 0.5312,-1.3359 0,-0.8282 -0.5468,-1.3672 -0.5469,-0.5391 -1.375,-0.5391 -0.7969,0 -1.3282,0.5313 -0.5312,0.5312 -0.5312,1.3281 z m 6.2475,0.2344 1.1406,-0.1563 q 0.2032,0.9688 0.6719,1.3985 0.4688,0.4297 1.1563,0.4297 0.7968,0 1.3515,-0.5547 0.5547,-0.5547 0.5547,-1.3829 0,-0.7968 -0.5078,-1.3046 -0.5078,-0.5078 -1.3047,-0.5078 -0.3281,0 -0.8125,0.125 l 0.125,-1 q 0.125,0.0156 0.1875,0.0156 0.7344,0 1.3203,-0.3828 0.586,-0.3828 0.586,-1.1797 0,-0.625 -0.4297,-1.0391 -0.4297,-0.414 -1.1016,-0.414 -0.6719,0 -1.1094,0.4218 -0.4375,0.4219 -0.5781,1.25 l -1.1406,-0.2031 q 0.2187,-1.1406 0.9609,-1.7734 0.7422,-0.6329 1.836,-0.6329 0.7656,0 1.4062,0.3282 0.6406,0.3281 0.9844,0.8906 0.3437,0.5625 0.3437,1.2031 0,0.5938 -0.3281,1.0938 -0.3281,0.5 -0.9531,0.7812 0.8125,0.2031 1.2734,0.7969 0.461,0.5938 0.461,1.5 0,1.2188 -0.8907,2.0703 -0.8906,0.8516 -2.25,0.8516 -1.2187,0 -2.0312,-0.7344 -0.8125,-0.7344 -0.9219,-1.8906 z M 137.3611,5.5 V 4.2031 h 1.2969 V 5.5 Z m 3.058,-2.4531 1.1407,-0.1563 q 0.2031,0.9688 0.6718,1.3985 0.4688,0.4297 1.1563,0.4297 0.7969,0 1.3515,-0.5547 0.5547,-0.5547 0.5547,-1.3829 0,-0.7968 -0.5078,-1.3046 -0.5078,-0.5078 -1.3047,-0.5078 -0.3281,0 -0.8125,0.125 l 0.125,-1 q 0.125,0.0156 0.1875,0.0156 0.7344,0 1.3203,-0.3828 0.586,-0.3828 0.586,-1.1797 0,-0.625 -0.4297,-1.0391 -0.4297,-0.414 -1.1016,-0.414 -0.6718,0 -1.1093,0.4218 -0.4375,0.4219 -0.5782,1.25 l -1.1406,-0.2031 q 0.2188,-1.1406 0.9609,-1.7734 0.7422,-0.6329 1.836,-0.6329 0.7656,0 1.4062,0.3282 0.6407,0.3281 0.9844,0.8906 0.3438,0.5625 0.3438,1.2031 0,0.5938 -0.3282,1.0938 -0.3281,0.5 -0.9531,0.7812 0.8125,0.2031 1.2734,0.7969 0.461,0.5938 0.461,1.5 0,1.2188 -0.8906,2.0703 -0.8907,0.8516 -2.25,0.8516 -1.2188,0 -2.0313,-0.7344 -0.8125,-0.7344 -0.9219,-1.8906 z m 7.4038,0 1.1406,-0.1563 q 0.2032,0.9688 0.6719,1.3985 0.4688,0.4297 1.1563,0.4297 0.7968,0 1.3515,-0.5547 0.5547,-0.5547 0.5547,-1.3829 0,-0.7968 -0.5078,-1.3046 -0.5078,-0.5078 -1.3047,-0.5078 -0.3281,0 -0.8125,0.125 l 0.125,-1 q 0.125,0.0156 0.1875,0.0156 0.7344,0 1.3203,-0.3828 0.586,-0.3828 0.586,-1.1797 0,-0.625 -0.4297,-1.0391 -0.4297,-0.414 -1.1016,-0.414 -0.6719,0 -1.1094,0.4218 -0.4375,0.4219 -0.5781,1.25 l -1.1406,-0.2031 q 0.2187,-1.1406 0.9609,-1.7734 0.7422,-0.6329 1.836,-0.6329 0.7656,0 1.4062,0.3282 0.6406,0.3281 0.9844,0.8906 0.3437,0.5625 0.3437,1.2031 0,0.5938 -0.3281,1.0938 -0.3281,0.5 -0.9531,0.7812 0.8125,0.2031 1.2734,0.7969 0.461,0.5938 0.461,1.5 0,1.2188 -0.8907,2.0703 -0.8906,0.8516 -2.25,0.8516 -1.2187,0 -2.0312,-0.7344 -0.8125,-0.7344 -0.9219,-1.8906 z M 159.5236,5.5 h -1.1407 v -7.2812 q -0.4218,0.3906 -1.0859,0.789 -0.6641,0.3984 -1.1953,0.586 v -1.1094 q 0.9531,-0.4375 1.6719,-1.0782 0.7187,-0.6406 1.0156,-1.25 h 0.7344 z m 3.4194,0 v -6.7344 h 1.0312 v 0.9532 q 0.7344,-1.1094 2.1406,-1.1094 0.6094,0 1.1172,0.2187 0.5078,0.2188 0.7657,0.5703 0.2578,0.3516 0.3515,0.8516 0.0625,0.3125 0.0625,1.1094 V 5.5 h -1.1406 V 1.4062 q 0,-0.7031 -0.1328,-1.0468 -0.1328,-0.3438 -0.4688,-0.5547 -0.3359,-0.2109 -0.789,-0.2109 -0.7344,0 -1.2657,0.4609 -0.5312,0.4609 -0.5312,1.7578 V 5.5 Z m 7.4037,0 v -6.7344 h 1.0157 v 0.9375 q 0.3281,-0.5 0.8515,-0.7969 0.5235,-0.2968 1.1953,-0.2968 0.75,0 1.2266,0.3125 0.4766,0.3125 0.6797,0.8593 0.7969,-1.1718 2.0781,-1.1718 1,0 1.5391,0.5547 0.539,0.5547 0.539,1.7109 V 5.5 h -1.125 V 1.25 q 0,-0.6875 -0.1093,-0.9844 -0.1094,-0.2968 -0.4063,-0.4844 -0.2969,-0.1874 -0.6875,-0.1874 -0.7187,0 -1.1875,0.4765 -0.4687,0.4766 -0.4687,1.5078 V 5.5 h -1.1407 V 1.125 q 0,-0.7656 -0.2812,-1.1484 -0.2813,-0.3828 -0.9063,-0.3828 -0.4843,0 -0.8906,0.2578 -0.4062,0.2578 -0.5937,0.7422 Q 171.4874,1.0781 171.4874,2 v 3.5 z"
       style="stroke:none" />
  </g>
  <g
     id="g384"
     style="font-size:13.33329964px;font-family:SansSerif;color-interpolation:linearRGB;color-rendering:optimizeQuality;image-rendering:optimizeQuality;text-rendering:geometricPrecision"
     transform="translate(499.5555,353.925)">
    <path
       inkscape:connector-curvature="0"
       id="path382"
       d="M 7.6406,2.2344 8.875,2.5469 Q 8.4844,4.0625 7.4766,4.8594 6.4688,5.6562 5.0156,5.6562 q -1.5,0 -2.4453,-0.6093 Q 1.625,4.4375 1.1328,3.2734 0.6406,2.1094 0.6406,0.7812 q 0,-1.4531 0.5625,-2.539 0.5625,-1.086 1.586,-1.6484 1.0234,-0.5626 2.2578,-0.5626 1.3906,0 2.3437,0.711 0.9532,0.7109 1.3282,2.0078 L 7.5,-0.9688 Q 7.1719,-1.9844 6.5625,-2.4453 5.9531,-2.9062 5.0156,-2.9062 q -1.0781,0 -1.7968,0.5156 -0.7188,0.5156 -1.0079,1.375 -0.289,0.8594 -0.289,1.7812 0,1.1875 0.3437,2.0782 0.3438,0.8906 1.0703,1.3281 0.7266,0.4375 1.586,0.4375 1.0312,0 1.75,-0.6016 Q 7.3906,3.4062 7.6406,2.2344 Z M 10.0514,2.125 q 0,-1.875 1.0312,-2.7656 0.875,-0.75 2.125,-0.75 1.3906,0 2.2734,0.9062 0.8829,0.9063 0.8829,2.5156 0,1.2969 -0.3907,2.0469 -0.3906,0.75 -1.1406,1.1641 -0.75,0.414 -1.625,0.414 -1.4219,0 -2.2891,-0.9062 -0.8671,-0.9062 -0.8671,-2.625 z m 1.1718,0 q 0,1.2969 0.5625,1.9453 0.5625,0.6485 1.4219,0.6485 0.8438,0 1.4141,-0.6485 0.5703,-0.6484 0.5703,-1.9765 0,-1.25 -0.5703,-1.8985 -0.5703,-0.6484 -1.4141,-0.6484 -0.8594,0 -1.4219,0.6406 -0.5625,0.6406 -0.5625,1.9375 z m 6.2319,0 q 0,-1.875 1.0313,-2.7656 0.875,-0.75 2.125,-0.75 1.3906,0 2.2734,0.9062 0.8828,0.9063 0.8828,2.5156 0,1.2969 -0.3906,2.0469 -0.3906,0.75 -1.1406,1.1641 -0.75,0.414 -1.625,0.414 -1.4219,0 -2.2891,-0.9062 -0.8672,-0.9062 -0.8672,-2.625 z m 1.1719,0 q 0,1.2969 0.5625,1.9453 0.5625,0.6485 1.4219,0.6485 0.8437,0 1.4141,-0.6485 0.5703,-0.6484 0.5703,-1.9765 0,-1.25 -0.5703,-1.8985 -0.5704,-0.6484 -1.4141,-0.6484 -0.8594,0 -1.4219,0.6406 Q 18.627,0.8281 18.627,2.125 Z M 25.2495,5.5 v -9.3125 h 1.1407 V 5.5 Z m 2.9889,-7.9844 v -1.3281 h 1.1406 v 1.3281 z m 0,7.9844 V -1.2344 H 29.379 V 5.5 Z m 2.9576,0 v -6.7344 h 1.0313 v 0.9532 q 0.7343,-1.1094 2.1406,-1.1094 0.6094,0 1.1172,0.2187 0.5078,0.2188 0.7656,0.5703 0.2578,0.3516 0.3516,0.8516 0.0625,0.3125 0.0625,1.1094 V 5.5 H 35.5241 V 1.4062 q 0,-0.7031 -0.1328,-1.0468 -0.1328,-0.3438 -0.4687,-0.5547 -0.336,-0.2109 -0.7891,-0.2109 -0.7344,0 -1.2656,0.4609 -0.5313,0.4609 -0.5313,1.7578 V 5.5 Z m 7.185,0.5625 1.125,0.1563 q 0.0625,0.5156 0.375,0.75 0.4375,0.3281 1.1719,0.3281 0.7813,0 1.2188,-0.3203 0.4375,-0.3204 0.5781,-0.8985 0.0937,-0.3437 0.0937,-1.4531 -0.75,0.875 -1.875,0.875 -1.3906,0 -2.1484,-1 -0.7578,-1 -0.7578,-2.4062 0,-0.9688 0.3516,-1.7813 0.3515,-0.8125 1.0078,-1.2578 0.6562,-0.4453 1.5625,-0.4453 1.1875,0 1.9687,0.9687 v -0.8125 h 1.0469 v 5.8125 q 0,1.5781 -0.3203,2.2344 -0.3203,0.6563 -1.0156,1.0391 -0.6954,0.3828 -1.711,0.3828 -1.2031,0 -1.9453,-0.5391 Q 38.3654,7.1562 38.381,6.0625 Z m 0.9532,-4.0469 q 0,1.3125 0.5234,1.9219 0.5234,0.6094 1.3203,0.6094 0.7969,0 1.3281,-0.6016 0.5313,-0.6015 0.5313,-1.8984 0,-1.2344 -0.5469,-1.8672 -0.5469,-0.6328 -1.3281,-0.6328 -0.7656,0 -1.2969,0.625 -0.5312,0.625 -0.5312,1.8437 z m 12.868,2.4688 0.1563,1 q -0.4844,0.1094 -0.8594,0.1094 -0.625,0 -0.9688,-0.2032 Q 50.1866,5.1875 50.046,4.8672 49.9053,4.5469 49.9053,3.5312 v -3.8906 h -0.8281 v -0.875 h 0.8281 v -1.6718 l 1.1407,-0.6876 v 2.3594 h 1.1562 v 0.875 H 51.046 v 3.9532 q 0,0.4843 0.0625,0.625 0.0625,0.1406 0.1953,0.2187 0.1328,0.0781 0.3828,0.0781 0.2031,0 0.5156,-0.0312 z M 53.3852,5.5 v -6.7344 h 1.0313 v 1.0156 q 0.3906,-0.7187 0.7265,-0.9453 0.336,-0.2265 0.7266,-0.2265 0.5781,0 1.1719,0.3594 l -0.3907,1.0624 q -0.4218,-0.25 -0.8281,-0.25 -0.375,0 -0.6797,0.2266 Q 54.8383,0.2344 54.7133,0.6406 54.5258,1.25 54.5258,1.9688 V 5.5 Z m 8.8394,-0.8281 q -0.625,0.5312 -1.2109,0.7578 -0.5859,0.2265 -1.2578,0.2265 -1.125,0 -1.7188,-0.5468 -0.5937,-0.5469 -0.5937,-1.3906 0,-0.4844 0.2266,-0.8985 0.2265,-0.4141 0.5937,-0.6641 0.3672,-0.25 0.8203,-0.375 0.3281,-0.0781 1.0156,-0.1718 1.375,-0.1563 2.0313,-0.3906 0.0156,-0.2344 0.0156,-0.2969 0,-0.7031 -0.3281,-0.9844 -0.4375,-0.3906 -1.2969,-0.3906 -0.8125,0 -1.1953,0.2812 -0.3828,0.2813 -0.5703,1 L 57.6465,0.6875 q 0.1406,-0.7187 0.4922,-1.1641 0.3516,-0.4453 1.0156,-0.6796 0.6641,-0.2344 1.5235,-0.2344 0.875,0 1.414,0.2031 0.5391,0.2031 0.7891,0.5078 0.25,0.3047 0.3594,0.7735 0.0468,0.2968 0.0468,1.0624 v 1.5157 q 0,1.5937 0.0782,2.0156 0.0781,0.4219 0.2812,0.8125 H 62.459 Q 62.2871,5.1406 62.2246,4.6719 Z M 62.1309,2.1094 q -0.625,0.2656 -1.8594,0.4375 -0.7031,0.1093 -1,0.2343 -0.2969,0.125 -0.4531,0.3672 -0.1563,0.2422 -0.1563,0.5391 0,0.4531 0.3438,0.7578 0.3437,0.3047 1.0156,0.3047 0.6563,0 1.1719,-0.2891 0.5156,-0.289 0.7656,-0.789 0.1719,-0.375 0.1719,-1.1407 z M 65.2378,5.5 v -6.7344 h 1.0312 v 0.9532 q 0.7344,-1.1094 2.1407,-1.1094 0.6093,0 1.1172,0.2187 0.5078,0.2188 0.7656,0.5703 0.2578,0.3516 0.3515,0.8516 0.0625,0.3125 0.0625,1.1094 V 5.5 H 69.5659 V 1.4062 q 0,-0.7031 -0.1328,-1.0468 -0.1328,-0.3438 -0.4687,-0.5547 -0.336,-0.2109 -0.7891,-0.2109 -0.7344,0 -1.2656,0.4609 -0.5313,0.4609 -0.5313,1.7578 V 5.5 Z m 6.9506,-2.0156 1.125,-0.1719 q 0.0938,0.6719 0.5313,1.0391 0.4375,0.3672 1.2187,0.3672 0.7813,0 1.1641,-0.3204 0.3828,-0.3203 0.3828,-0.7578 0,-0.3906 -0.3437,-0.6094 Q 76.0322,2.875 75.0947,2.6406 73.8447,2.3281 73.3603,2.0938 72.8759,1.8594 72.6259,1.4531 q -0.25,-0.4062 -0.25,-0.9062 0,-0.4531 0.2032,-0.836 0.2031,-0.3828 0.5625,-0.6328 0.2656,-0.2031 0.7265,-0.3359 0.461,-0.1328 0.9922,-0.1328 0.7813,0 1.3828,0.2265 0.6016,0.2266 0.8907,0.6172 0.289,0.3907 0.3984,1.0469 l -1.125,0.1562 q -0.0781,-0.5312 -0.4375,-0.8203 -0.3594,-0.289 -1.0313,-0.289 -0.7812,0 -1.125,0.2578 -0.3437,0.2578 -0.3437,0.6172 0,0.2187 0.1406,0.3906 0.1406,0.1875 0.4375,0.3125 0.1719,0.0625 1.0156,0.2812 1.2188,0.3282 1.6954,0.5313 0.4765,0.2031 0.75,0.6016 0.2734,0.3984 0.2734,0.9765 0,0.5782 -0.3359,1.0782 -0.336,0.5 -0.961,0.7812 -0.625,0.2812 -1.4219,0.2812 -1.3125,0 -2,-0.5468 -0.6875,-0.5469 -0.875,-1.625 z m 7.1094,-5.9688 v -1.3281 h 1.1406 v 1.3281 z m 0,7.9844 v -6.7344 h 1.1406 V 5.5 Z m 5.4576,-1.0156 0.1563,1 q -0.4844,0.1094 -0.8594,0.1094 -0.625,0 -0.9687,-0.2032 Q 82.7398,5.1875 82.5992,4.8672 82.4586,4.5469 82.4586,3.5312 v -3.8906 h -0.8282 v -0.875 h 0.8282 v -1.6718 l 1.1406,-0.6876 v 2.3594 h 1.1562 v 0.875 h -1.1562 v 3.9532 q 0,0.4843 0.0625,0.625 0.0625,0.1406 0.1953,0.2187 0.1328,0.0781 0.3828,0.0781 0.2031,0 0.5156,-0.0312 z m 1.1987,-6.9688 v -1.3281 h 1.1406 v 1.3281 z m 0,7.9844 v -6.7344 h 1.1406 V 5.5 Z m 2.5357,-3.375 q 0,-1.875 1.0313,-2.7656 0.875,-0.75 2.125,-0.75 1.3906,0 2.2734,0.9062 0.8828,0.9063 0.8828,2.5156 0,1.2969 -0.3906,2.0469 -0.3906,0.75 -1.1406,1.1641 -0.75,0.414 -1.625,0.414 -1.4219,0 -2.2891,-0.9062 -0.8672,-0.9062 -0.8672,-2.625 z m 1.1719,0 q 0,1.2969 0.5625,1.9453 0.5625,0.6485 1.4219,0.6485 0.8437,0 1.414,-0.6485 0.5703,-0.6484 0.5703,-1.9765 0,-1.25 -0.5703,-1.8985 -0.5703,-0.6484 -1.414,-0.6484 -0.8594,0 -1.4219,0.6406 -0.5625,0.6406 -0.5625,1.9375 z M 96.3155,5.5 v -6.7344 h 1.0312 v 0.9532 q 0.7344,-1.1094 2.1406,-1.1094 0.6094,0 1.1172,0.2187 0.5078,0.2188 0.7656,0.5703 0.2579,0.3516 0.3516,0.8516 0.0625,0.3125 0.0625,1.1094 V 5.5 h -1.1406 V 1.4062 q 0,-0.7031 -0.1328,-1.0468 -0.1328,-0.3438 -0.4688,-0.5547 -0.3359,-0.2109 -0.789,-0.2109 -0.7344,0 -1.2657,0.4609 -0.5312,0.4609 -0.5312,1.7578 V 5.5 Z m 15.0868,0 h -1.1407 v -7.2812 q -0.4218,0.3906 -1.0859,0.789 -0.6641,0.3984 -1.1953,0.586 v -1.1094 q 0.9531,-0.4375 1.6719,-1.0782 0.7187,-0.6406 1.0156,-1.25 h 0.7344 z m 3.1069,-4.5938 q 0,-1.6406 0.3359,-2.6484 0.3359,-1.0078 1.0078,-1.5547 0.6719,-0.5469 1.6875,-0.5469 0.75,0 1.3125,0.3047 0.5625,0.3047 0.9297,0.8672 0.3672,0.5625 0.5781,1.3828 0.211,0.8203 0.211,2.1953 0,1.6407 -0.336,2.6485 -0.3359,1.0078 -1.0078,1.5547 -0.6719,0.5468 -1.6875,0.5468 -1.3437,0 -2.125,-0.9687 -0.9062,-1.1563 -0.9062,-3.7813 z m 1.1718,0 q 0,2.2969 0.5313,3.0547 0.5312,0.7579 1.3281,0.7579 0.7813,0 1.3203,-0.7579 0.5391,-0.7578 0.5391,-3.0547 0,-2.2968 -0.5391,-3.0468 -0.539,-0.75 -1.3359,-0.75 -0.7813,0 -1.2656,0.6562 -0.5782,0.8594 -0.5782,3.1406 z m 7.9819,-0.4531 q -0.7031,-0.2656 -1.0468,-0.7422 -0.3438,-0.4765 -0.3438,-1.1484 0,-1.0156 0.7266,-1.7109 0.7265,-0.6954 1.9453,-0.6954 1.2187,0 1.9609,0.711 0.7422,0.7109 0.7422,1.7266 0,0.6406 -0.3437,1.1171 -0.3438,0.4766 -1.0313,0.7422 0.8594,0.2813 1.3047,0.9063 0.4453,0.625 0.4453,1.4844 0,1.1874 -0.8437,2 -0.8438,0.8124 -2.2188,0.8124 -1.375,0 -2.2187,-0.8124 -0.8438,-0.8126 -0.8438,-2.0313 0,-0.9063 0.4609,-1.5234 0.461,-0.6172 1.3047,-0.836 z m -0.2343,-1.9375 q 0,0.6563 0.4296,1.0782 0.4297,0.4218 1.1016,0.4218 0.6719,0 1.0938,-0.414 0.4218,-0.4141 0.4218,-1.0235 0,-0.625 -0.4375,-1.0547 -0.4375,-0.4296 -1.0781,-0.4296 -0.6562,0 -1.0937,0.4218 -0.4375,0.4219 -0.4375,1 z m -0.3594,4.2969 q 0,0.4844 0.2344,0.9453 0.2343,0.461 0.6875,0.711 0.4531,0.25 0.9843,0.25 0.8125,0 1.3438,-0.5235 0.5312,-0.5234 0.5312,-1.3359 0,-0.8282 -0.5468,-1.3672 -0.5469,-0.5391 -1.375,-0.5391 -0.7969,0 -1.3282,0.5313 -0.5312,0.5312 -0.5312,1.3281 z m 6.2475,0.2344 1.1406,-0.1563 q 0.2032,0.9688 0.6719,1.3985 0.4688,0.4297 1.1563,0.4297 0.7968,0 1.3515,-0.5547 0.5547,-0.5547 0.5547,-1.3829 0,-0.7968 -0.5078,-1.3046 -0.5078,-0.5078 -1.3047,-0.5078 -0.3281,0 -0.8125,0.125 l 0.125,-1 q 0.125,0.0156 0.1875,0.0156 0.7344,0 1.3203,-0.3828 0.586,-0.3828 0.586,-1.1797 0,-0.625 -0.4297,-1.0391 -0.4297,-0.414 -1.1016,-0.414 -0.6719,0 -1.1094,0.4218 -0.4375,0.4219 -0.5781,1.25 l -1.1406,-0.2031 q 0.2187,-1.1406 0.9609,-1.7734 0.7422,-0.6329 1.836,-0.6329 0.7656,0 1.4062,0.3282 0.6406,0.3281 0.9844,0.8906 0.3437,0.5625 0.3437,1.2031 0,0.5938 -0.3281,1.0938 -0.3281,0.5 -0.9531,0.7812 0.8125,0.2031 1.2734,0.7969 0.461,0.5938 0.461,1.5 0,1.2188 -0.8907,2.0703 -0.8906,0.8516 -2.25,0.8516 -1.2187,0 -2.0312,-0.7344 -0.8125,-0.7344 -0.9219,-1.8906 z M 137.3611,5.5 V 4.2031 h 1.2969 V 5.5 Z m 3.058,-2.4531 1.1407,-0.1563 q 0.2031,0.9688 0.6718,1.3985 0.4688,0.4297 1.1563,0.4297 0.7969,0 1.3515,-0.5547 0.5547,-0.5547 0.5547,-1.3829 0,-0.7968 -0.5078,-1.3046 -0.5078,-0.5078 -1.3047,-0.5078 -0.3281,0 -0.8125,0.125 l 0.125,-1 q 0.125,0.0156 0.1875,0.0156 0.7344,0 1.3203,-0.3828 0.586,-0.3828 0.586,-1.1797 0,-0.625 -0.4297,-1.0391 -0.4297,-0.414 -1.1016,-0.414 -0.6718,0 -1.1093,0.4218 -0.4375,0.4219 -0.5782,1.25 l -1.1406,-0.2031 q 0.2188,-1.1406 0.9609,-1.7734 0.7422,-0.6329 1.836,-0.6329 0.7656,0 1.4062,0.3282 0.6407,0.3281 0.9844,0.8906 0.3438,0.5625 0.3438,1.2031 0,0.5938 -0.3282,1.0938 -0.3281,0.5 -0.9531,0.7812 0.8125,0.2031 1.2734,0.7969 0.461,0.5938 0.461,1.5 0,1.2188 -0.8906,2.0703 -0.8907,0.8516 -2.25,0.8516 -1.2188,0 -2.0313,-0.7344 -0.8125,-0.7344 -0.9219,-1.8906 z m 7.4038,0 1.1406,-0.1563 q 0.2032,0.9688 0.6719,1.3985 0.4688,0.4297 1.1563,0.4297 0.7968,0 1.3515,-0.5547 0.5547,-0.5547 0.5547,-1.3829 0,-0.7968 -0.5078,-1.3046 -0.5078,-0.5078 -1.3047,-0.5078 -0.3281,0 -0.8125,0.125 l 0.125,-1 q 0.125,0.0156 0.1875,0.0156 0.7344,0 1.3203,-0.3828 0.586,-0.3828 0.586,-1.1797 0,-0.625 -0.4297,-1.0391 -0.4297,-0.414 -1.1016,-0.414 -0.6719,0 -1.1094,0.4218 -0.4375,0.4219 -0.5781,1.25 l -1.1406,-0.2031 q 0.2187,-1.1406 0.9609,-1.7734 0.7422,-0.6329 1.836,-0.6329 0.7656,0 1.4062,0.3282 0.6406,0.3281 0.9844,0.8906 0.3437,0.5625 0.3437,1.2031 0,0.5938 -0.3281,1.0938 -0.3281,0.5 -0.9531,0.7812 0.8125,0.2031 1.2734,0.7969 0.461,0.5938 0.461,1.5 0,1.2188 -0.8907,2.0703 -0.8906,0.8516 -2.25,0.8516 -1.2187,0 -2.0312,-0.7344 -0.8125,-0.7344 -0.9219,-1.8906 z M 159.5236,5.5 h -1.1407 v -7.2812 q -0.4218,0.3906 -1.0859,0.789 -0.6641,0.3984 -1.1953,0.586 v -1.1094 q 0.9531,-0.4375 1.6719,-1.0782 0.7187,-0.6406 1.0156,-1.25 h 0.7344 z m 3.4194,0 v -6.7344 h 1.0312 v 0.9532 q 0.7344,-1.1094 2.1406,-1.1094 0.6094,0 1.1172,0.2187 0.5078,0.2188 0.7657,0.5703 0.2578,0.3516 0.3515,0.8516 0.0625,0.3125 0.0625,1.1094 V 5.5 h -1.1406 V 1.4062 q 0,-0.7031 -0.1328,-1.0468 -0.1328,-0.3438 -0.4688,-0.5547 -0.3359,-0.2109 -0.789,-0.2109 -0.7344,0 -1.2657,0.4609 -0.5312,0.4609 -0.5312,1.7578 V 5.5 Z m 7.4037,0 v -6.7344 h 1.0157 v 0.9375 q 0.3281,-0.5 0.8515,-0.7969 0.5235,-0.2968 1.1953,-0.2968 0.75,0 1.2266,0.3125 0.4766,0.3125 0.6797,0.8593 0.7969,-1.1718 2.0781,-1.1718 1,0 1.5391,0.5547 0.539,0.5547 0.539,1.7109 V 5.5 h -1.125 V 1.25 q 0,-0.6875 -0.1093,-0.9844 -0.1094,-0.2968 -0.4063,-0.4844 -0.2969,-0.1874 -0.6875,-0.1874 -0.7187,0 -1.1875,0.4765 -0.4687,0.4766 -0.4687,1.5078 V 5.5 h -1.1407 V 1.125 q 0,-0.7656 -0.2812,-1.1484 -0.2813,-0.3828 -0.9063,-0.3828 -0.4843,0 -0.8906,0.2578 -0.4062,0.2578 -0.5937,0.7422 Q 171.4874,1.0781 171.4874,2 v 3.5 z"
       style="stroke:none" />
  </g>
  <g
     id="g392"
     style="font-size:16px;font-family:SansSerif;color-interpolation:linearRGB;color-rendering:optimizeQuality;image-rendering:optimizeQuality;text-rendering:geometricPrecision"
     transform="translate(412.6667,372.4)">
    <path
       inkscape:connector-curvature="0"
       id="path390"
       d="m -196.4062,-8.5 v -1.3438 h 4.8593 v 4.25 q -1.125,0.8907 -2.3125,1.3438 -1.1875,0.4531 -2.4375,0.4531 -1.6875,0 -3.0625,-0.7265 -1.375,-0.7266 -2.0781,-2.0938 -0.7031,-1.3672 -0.7031,-3.0547 0,-1.6719 0.6953,-3.125 0.6953,-1.4531 2.0078,-2.1562 1.3125,-0.7031 3.0313,-0.7031 1.2343,0 2.2421,0.4062 1.0079,0.4062 1.5782,1.125 0.5703,0.7188 0.8671,1.875 l -1.375,0.375 q -0.25,-0.875 -0.6328,-1.375 -0.3828,-0.5 -1.0937,-0.8047 -0.7109,-0.3047 -1.5859,-0.3047 -1.0313,0 -1.7891,0.3203 -0.7578,0.3203 -1.2266,0.836 -0.4687,0.5156 -0.7187,1.125 -0.4375,1.0625 -0.4375,2.3125 0,1.5312 0.5234,2.5625 0.5235,1.0312 1.5313,1.5312 1.0078,0.5 2.1484,0.5 0.9844,0 1.9219,-0.3828 0.9375,-0.3828 1.4219,-0.8047 V -8.5 Z m 6.8984,4.5 v -8.2969 h 1.2656 v 1.25 q 0.4844,-0.875 0.8906,-1.1562 0.4063,-0.2813 0.9063,-0.2813 0.7031,0 1.4375,0.4532 l -0.4844,1.2968 q -0.5156,-0.2968 -1.0312,-0.2968 -0.4532,0 -0.8204,0.2734 -0.3671,0.2734 -0.5234,0.7734 -0.2344,0.75 -0.2344,1.6406 V -4 Z m 4.8125,-4.1562 q 0,-2.2969 1.2812,-3.4063 1.0782,-0.9219 2.6094,-0.9219 1.7188,0 2.8047,1.1172 1.0859,1.1172 1.0859,3.1016 0,1.5937 -0.4843,2.5156 -0.4844,0.9219 -1.3985,1.4297 -0.914,0.5078 -2.0078,0.5078 -1.7344,0 -2.8125,-1.1172 -1.0781,-1.1172 -1.0781,-3.2265 z m 1.4531,0 q 0,1.5937 0.6953,2.3906 0.6953,0.7968 1.7422,0.7968 1.0469,0 1.7422,-0.7968 0.6953,-0.7969 0.6953,-2.4375 0,-1.5313 -0.6953,-2.3281 -0.6953,-0.7969 -1.7422,-0.7969 -1.0469,0 -1.7422,0.789 -0.6953,0.7891 -0.6953,2.3829 z M -169.8281,-4 v -1.2188 q -0.9688,1.4063 -2.6407,1.4063 -0.7343,0 -1.3671,-0.2813 -0.6329,-0.2812 -0.9453,-0.7109 -0.3126,-0.4297 -0.4376,-1.0391 -0.0781,-0.4218 -0.0781,-1.3124 v -5.1407 h 1.4063 v 4.5938 q 0,1.1093 0.0781,1.4843 0.1406,0.5626 0.5703,0.875 0.4297,0.3126 1.0547,0.3126 0.6406,0 1.1953,-0.3204 0.5547,-0.3203 0.7813,-0.8828 0.2265,-0.5625 0.2265,-1.625 v -4.4375 h 1.4063 V -4 Z m 3.4609,0 v -8.2969 h 1.2656 v 1.1719 q 0.9063,-1.3594 2.6407,-1.3594 0.75,0 1.375,0.2656 0.625,0.2657 0.9375,0.7032 0.3125,0.4375 0.4375,1.0468 0.0781,0.3907 0.0781,1.3594 V -4 h -1.4063 v -5.0469 q 0,-0.8593 -0.164,-1.289 -0.1641,-0.4297 -0.5781,-0.6797 -0.4141,-0.25 -0.9766,-0.25 -0.9063,0 -1.5547,0.5703 -0.6484,0.5703 -0.6484,2.1641 V -4 Z m 14.2734,0 v -1.0469 q -0.7812,1.2344 -2.3124,1.2344 -1,0 -1.8282,-0.5469 -0.8281,-0.5468 -1.289,-1.5312 -0.461,-0.9844 -0.461,-2.25 0,-1.25 0.4141,-2.2578 0.4141,-1.0078 1.2422,-1.5469 0.8281,-0.5391 1.8593,-0.5391 0.75,0 1.336,0.3125 0.5859,0.3125 0.9453,0.8281 v -4.1093 h 1.4063 V -4 Z m -4.4374,-4.1406 q 0,1.5937 0.6718,2.3828 0.6719,0.789 1.5782,0.789 0.9218,0 1.5703,-0.7578 0.6484,-0.7578 0.6484,-2.3046 0,-1.7032 -0.6563,-2.5 -0.6562,-0.7969 -1.625,-0.7969 -0.9374,0 -1.5624,0.7656 -0.625,0.7656 -0.625,2.4219 z m 11.8437,1.6562 1.3906,-0.2187 q 0.1094,0.8437 0.6485,1.289 0.539,0.4453 1.4922,0.4453 0.9687,0 1.4374,-0.3984 0.4688,-0.3984 0.4688,-0.9297 0,-0.4687 -0.4062,-0.75 -0.2969,-0.1875 -1.4376,-0.4687 -1.5468,-0.3906 -2.1484,-0.6797 -0.6016,-0.2891 -0.9062,-0.7891 -0.3047,-0.5 -0.3047,-1.1094 0,-0.5624 0.25,-1.0312 0.25,-0.4688 0.6875,-0.7812 0.3281,-0.25 0.8984,-0.4141 0.5703,-0.1641 1.211,-0.1641 0.9843,0 1.7187,0.2813 0.7344,0.2812 1.0859,0.7578 0.3516,0.4765 0.4922,1.2891 l -1.375,0.1874 q -0.0937,-0.6406 -0.5468,-1 -0.4532,-0.3593 -1.2657,-0.3593 -0.9687,0 -1.3828,0.3203 -0.4141,0.3203 -0.4141,0.7422 0,0.2812 0.1719,0.5 0.1719,0.2187 0.5313,0.375 0.2187,0.0781 1.25,0.3594 1.4844,0.3906 2.0781,0.6484 0.5937,0.2578 0.9297,0.7422 0.3359,0.4844 0.3359,1.2031 0,0.7031 -0.414,1.3203 -0.4141,0.6172 -1.1875,0.961 -0.7735,0.3437 -1.7422,0.3437 -1.625,0 -2.4688,-0.6719 -0.8437,-0.6718 -1.0781,-2 z m 11.625,1.2188 0.2031,1.25 q -0.5937,0.125 -1.0625,0.125 -0.7656,0 -1.1875,-0.2422 -0.4218,-0.2422 -0.5937,-0.6406 -0.1719,-0.3985 -0.1719,-1.6641 v -4.7656 h -1.0312 v -1.0938 h 1.0312 v -2.0625 l 1.4062,-0.8437 v 2.9062 h 1.4063 v 1.0938 h -1.4063 v 4.8437 q 0,0.6094 0.0704,0.7813 0.0703,0.1719 0.2422,0.2734 0.1718,0.1016 0.4843,0.1016 0.2344,0 0.6094,-0.0625 z m 6.7891,0.2344 q -0.7813,0.6718 -1.5,0.9453 -0.7188,0.2734 -1.5469,0.2734 -1.375,0 -2.1094,-0.6719 -0.7344,-0.6718 -0.7344,-1.7031 0,-0.6094 0.2813,-1.1172 0.2812,-0.5078 0.7266,-0.8125 0.4453,-0.3047 1.0078,-0.4609 0.4218,-0.1094 1.25,-0.2031 1.7031,-0.2032 2.5156,-0.4844 0,-0.2969 0,-0.375 0,-0.8594 -0.3906,-1.2032 -0.5469,-0.4843 -1.6094,-0.4843 -0.9844,0 -1.461,0.3515 -0.4765,0.3516 -0.6953,1.2266 l -1.375,-0.1875 q 0.1875,-0.875 0.6172,-1.4219 0.4297,-0.5468 1.2422,-0.8359 0.8125,-0.2891 1.875,-0.2891 1.0625,0 1.7266,0.25 0.664,0.25 0.9765,0.625 0.3125,0.375 0.4375,0.9532 0.0782,0.3593 0.0782,1.2968 v 1.875 q 0,1.9688 0.0859,2.4844 0.0859,0.5156 0.3516,1 h -1.4688 q -0.2187,-0.4375 -0.2812,-1.0312 z m -0.1094,-3.1407 q -0.7656,0.3125 -2.2969,0.5313 -0.875,0.125 -1.2344,0.2812 -0.3593,0.1563 -0.5547,0.461 -0.1953,0.3046 -0.1953,0.664 0,0.5625 0.4297,0.9375 0.4297,0.375 1.2422,0.375 0.8125,0 1.4453,-0.3515 0.6328,-0.3516 0.9297,-0.9766 0.2344,-0.4688 0.2344,-1.4062 z m 6.664,2.9063 0.2032,1.25 q -0.5938,0.125 -1.0625,0.125 -0.7657,0 -1.1875,-0.2422 -0.4219,-0.2422 -0.5938,-0.6406 -0.1718,-0.3985 -0.1718,-1.6641 v -4.7656 h -1.0313 v -1.0938 h 1.0313 v -2.0625 l 1.4062,-0.8437 v 2.9062 h 1.4062 v 1.0938 h -1.4062 v 4.8437 q 0,0.6094 0.0703,0.7813 0.0703,0.1719 0.2422,0.2734 0.1719,0.1016 0.4844,0.1016 0.2343,0 0.6093,-0.0625 z m 7.0547,-1.4063 1.4532,0.1719 q -0.3438,1.2812 -1.2735,1.9844 -0.9297,0.7031 -2.3672,0.7031 -1.8281,0 -2.8906,-1.125 -1.0625,-1.125 -1.0625,-3.1406 0,-2.0938 1.0781,-3.25 1.0782,-1.1563 2.7969,-1.1563 1.6563,0 2.7109,1.1328 1.0547,1.1328 1.0547,3.1797 0,0.125 0,0.375 h -6.1875 q 0.0782,1.375 0.7735,2.1016 0.6953,0.7265 1.7265,0.7265 0.7813,0 1.3282,-0.4062 0.5468,-0.4062 0.8593,-1.2969 z m -4.6093,-2.2812 h 4.625 q -0.0938,-1.0469 -0.5313,-1.5625 -0.6719,-0.8125 -1.7344,-0.8125 -0.9687,0 -1.6328,0.6484 -0.664,0.6485 -0.7265,1.7266 z m 19.2812,3.5937 V -4 h -7.5781 q -0.0156,-0.5156 0.1719,-0.9844 0.2812,-0.7656 0.9218,-1.5156 0.6407,-0.75 1.8438,-1.7344 1.8594,-1.5312 2.5156,-2.4297 0.6563,-0.8984 0.6563,-1.6953 0,-0.8281 -0.5938,-1.4062 -0.5937,-0.5782 -1.5625,-0.5782 -1.0156,0 -1.625,0.6094 -0.6094,0.6094 -0.6094,1.6875 l -1.4531,-0.1406 q 0.1563,-1.625 1.125,-2.4687 0.9688,-0.8438 2.5938,-0.8438 1.6562,0 2.6171,0.9141 0.961,0.914 0.961,2.2578 0,0.6875 -0.2813,1.3515 -0.2812,0.6641 -0.9375,1.3985 -0.6562,0.7343 -2.1718,2.0156 -1.2657,1.0625 -1.625,1.4453 -0.3594,0.3828 -0.5938,0.7578 z m 1.5078,-4.2968 q 0,-2.0313 0.4141,-3.2657 0.4141,-1.2343 1.2422,-1.9062 Q -94,-15.5 -92.75,-15.5 q 0.9219,0 1.6172,0.3672 0.6953,0.3672 1.1484,1.0703 0.4532,0.7031 0.711,1.7031 0.2578,1 0.2578,2.7032 0,2.0156 -0.4141,3.2578 -0.4141,1.2422 -1.2422,1.9218 -0.8281,0.6797 -2.0781,0.6797 -1.6562,0 -2.6094,-1.2031 -1.125,-1.4219 -1.125,-4.6562 z m 1.4375,0 q 0,2.8281 0.6641,3.7578 0.664,0.9296 1.6328,0.9296 0.9688,0 1.625,-0.9374 0.6562,-0.9376 0.6562,-3.75 0,-2.8282 -0.6562,-3.7579 -0.6562,-0.9297 -1.6406,-0.9297 -0.9688,0 -1.5469,0.8282 -0.7344,1.0468 -0.7344,3.8594 z m 13.5235,2.9843 1.4531,0.1719 q -0.3438,1.2812 -1.2735,1.9844 -0.9296,0.7031 -2.3671,0.7031 -1.8282,0 -2.8907,-1.125 -1.0625,-1.125 -1.0625,-3.1406 0,-2.0938 1.0782,-3.25 1.0781,-1.1563 2.7968,-1.1563 1.6563,0 2.711,1.1328 1.0547,1.1328 1.0547,3.1797 0,0.125 0,0.375 h -6.1875 q 0.0781,1.375 0.7734,2.1016 0.6953,0.7265 1.7266,0.7265 0.7812,0 1.3281,-0.4062 0.5469,-0.4062 0.8594,-1.2969 z m -4.6094,-2.2812 h 4.625 q -0.0938,-1.0469 -0.5313,-1.5625 -0.6718,-0.8125 -1.7343,-0.8125 -0.9688,0 -1.6328,0.6484 -0.6641,0.6485 -0.7266,1.7266 z M -74.8438,-4 -79.2812,-15.4531 h 1.6406 l 2.9687,8.3125 q 0.3594,1 0.6094,1.875 0.2656,-0.9375 0.6094,-1.875 l 3.0937,-8.3125 h 1.5469 L -73.2969,-4 Z m 14.7266,-1.2656 0.2031,1.25 q -0.5937,0.125 -1.0625,0.125 -0.7656,0 -1.1875,-0.2422 -0.4218,-0.2422 -0.5937,-0.6406 -0.1719,-0.3985 -0.1719,-1.6641 v -4.7656 h -1.0312 v -1.0938 h 1.0312 v -2.0625 l 1.4063,-0.8437 v 2.9062 h 1.4062 v 1.0938 h -1.4062 v 4.8437 q 0,0.6094 0.0703,0.7813 0.0703,0.1719 0.2422,0.2734 0.1718,0.1016 0.4843,0.1016 0.2344,0 0.6094,-0.0625 z M -58.7344,-4 v -11.4531 h 1.4063 v 4.1093 q 0.9843,-1.1406 2.4843,-1.1406 0.9219,0 1.6016,0.3594 0.6797,0.3594 0.9688,1 0.289,0.6406 0.289,1.8594 V -4 h -1.4062 v -5.2656 q 0,-1.0469 -0.4532,-1.5313 -0.4531,-0.4843 -1.2968,-0.4843 -0.625,0 -1.1719,0.3281 -0.5469,0.3281 -0.7813,0.8828 -0.2343,0.5547 -0.2343,1.5234 V -4 Z m 14.3047,-1.0312 q -0.7812,0.6718 -1.5,0.9453 -0.7187,0.2734 -1.5469,0.2734 -1.375,0 -2.1093,-0.6719 -0.7344,-0.6718 -0.7344,-1.7031 0,-0.6094 0.2812,-1.1172 0.2813,-0.5078 0.7266,-0.8125 0.4453,-0.3047 1.0078,-0.4609 0.4219,-0.1094 1.25,-0.2031 1.7031,-0.2032 2.5156,-0.4844 0,-0.2969 0,-0.375 0,-0.8594 -0.3906,-1.2032 -0.5469,-0.4843 -1.6094,-0.4843 -0.9843,0 -1.4609,0.3515 -0.4766,0.3516 -0.6953,1.2266 l -1.375,-0.1875 q 0.1875,-0.875 0.6172,-1.4219 0.4297,-0.5468 1.2422,-0.8359 0.8125,-0.2891 1.875,-0.2891 1.0625,0 1.7265,0.25 0.6641,0.25 0.9766,0.625 0.3125,0.375 0.4375,0.9532 0.0781,0.3593 0.0781,1.2968 v 1.875 q 0,1.9688 0.086,2.4844 0.0859,0.5156 0.3515,1 h -1.4687 q -0.2188,-0.4375 -0.2813,-1.0312 z m -0.1094,-3.1407 q -0.7656,0.3125 -2.2968,0.5313 -0.875,0.125 -1.2344,0.2812 -0.3594,0.1563 -0.5547,0.461 -0.1953,0.3046 -0.1953,0.664 0,0.5625 0.4297,0.9375 0.4297,0.375 1.2422,0.375 0.8125,0 1.4453,-0.3515 0.6328,-0.3516 0.9297,-0.9766 0.2343,-0.4688 0.2343,-1.4062 z m 6.6641,2.9063 0.2031,1.25 q -0.5937,0.125 -1.0625,0.125 -0.7656,0 -1.1875,-0.2422 -0.4219,-0.2422 -0.5937,-0.6406 -0.1719,-0.3985 -0.1719,-1.6641 v -4.7656 h -1.0313 v -1.0938 h 1.0313 v -2.0625 l 1.4063,-0.8437 v 2.9062 h 1.4062 v 1.0938 h -1.4062 v 4.8437 q 0,0.6094 0.0703,0.7813 0.0703,0.1719 0.2421,0.2734 0.1719,0.1016 0.4844,0.1016 0.2344,0 0.6094,-0.0625 z m 7.3594,1.2656 -2.5469,-8.2969 h 1.4531 l 1.3282,4.7813 0.4843,1.7812 q 0.0313,-0.125 0.4375,-1.7031 l 1.3125,-4.8594 h 1.4531 l 1.2344,4.8125 0.4219,1.5782 0.4687,-1.5938 1.4219,-4.7969 h 1.375 L -24.2656,-4 h -1.4688 L -27.0469,-8.9688 -27.375,-10.3906 -29.0469,-4 Z m 15.4297,-1.0312 q -0.7813,0.6718 -1.5,0.9453 -0.7188,0.2734 -1.5469,0.2734 -1.375,0 -2.1094,-0.6719 -0.7344,-0.6718 -0.7344,-1.7031 0,-0.6094 0.2813,-1.1172 0.2812,-0.5078 0.7265,-0.8125 0.4454,-0.3047 1.0079,-0.4609 0.4218,-0.1094 1.25,-0.2031 1.7031,-0.2032 2.5156,-0.4844 0,-0.2969 0,-0.375 0,-0.8594 -0.3906,-1.2032 -0.5469,-0.4843 -1.6094,-0.4843 -0.9844,0 -1.4609,0.3515 -0.4766,0.3516 -0.6954,1.2266 l -1.375,-0.1875 q 0.1875,-0.875 0.6172,-1.4219 0.4297,-0.5468 1.2422,-0.8359 0.8125,-0.2891 1.875,-0.2891 1.0625,0 1.7266,0.25 0.664,0.25 0.9765,0.625 0.3125,0.375 0.4375,0.9532 0.0782,0.3593 0.0782,1.2968 v 1.875 q 0,1.9688 0.0859,2.4844 0.0859,0.5156 0.3516,1 h -1.4688 q -0.2187,-0.4375 -0.2812,-1.0312 z m -0.1094,-3.1407 q -0.7656,0.3125 -2.2969,0.5313 -0.875,0.125 -1.2344,0.2812 -0.3593,0.1563 -0.5546,0.461 -0.1954,0.3046 -0.1954,0.664 0,0.5625 0.4297,0.9375 0.4297,0.375 1.2422,0.375 0.8125,0 1.4453,-0.3515 0.6328,-0.3516 0.9297,-0.9766 0.2344,-0.4688 0.2344,-1.4062 z m 3.5391,7.375 -0.1563,-1.3281 q 0.4531,0.125 0.7969,0.125 0.4687,0 0.75,-0.1562 0.2812,-0.1563 0.4687,-0.4376 0.125,-0.2031 0.4219,-1.0468 0.0469,-0.1094 0.125,-0.3438 l -3.1406,-8.3125 h 1.5156 L -9.1562,-7.5 q 0.3437,0.9219 0.6093,1.9219 0.2344,-0.9688 0.5781,-1.8907 l 1.7657,-4.8281 h 1.4062 l -3.1562,8.4375 q -0.5,1.375 -0.7813,1.8906 -0.375,0.6876 -0.8594,1.0157 -0.4843,0.3281 -1.1562,0.3281 -0.4062,0 -0.9062,-0.1719 z m 8.8124,-6.0469 -0.4374,-6.0781 v -2.5312 h 1.75 v 2.5312 l -0.4063,6.0781 z M -3.2188,-4 v -1.6094 h 1.625 V -4 Z"
       style="stroke:none" />
  </g>
  <g
     id="g5065"
     transform="translate(-30,4)">
    <g
       transform="translate(152)"
       style="color-interpolation:linearRGB;stroke-width:0.66670001;stroke-linecap:butt;stroke-linejoin:round;color-rendering:optimizeQuality;image-rendering:optimizeQuality;text-rendering:geometricPrecision"
       id="g388">
      <line
         y2="443.53329"
         style="fill:none"
         x1="242.5"
         x2="242.5"
         y1="372.39999"
         id="line386" />
    </g>
    <path
       inkscape:connector-curvature="0"
       id="path400"
       d="m 394.5,452.2 5,-13.3333 -5,4.6666 -5,-4.6666 z"
       style="color-interpolation:sRGB;stroke:none;color-rendering:optimizeSpeed;image-rendering:optimizeSpeed;shape-rendering:crispEdges;text-rendering:optimizeSpeed" />
  </g>
  <flowRoot
     xml:space="preserve"
     id="flowRoot5320"
     style="fill:black;fill-opacity:1;stroke:none;font-family:sans-serif;font-style:normal;font-weight:normal;font-size:12px;line-height:1.25;letter-spacing:0px;word-spacing:0px;"><flowRegion
       id="flowRegion5322"
       style="font-size:12px;"><rect
         id="rect5324"
         width="786"
         height="181"
         x="607"
         y="-147"
         style="font-size:12px;" /></flowRegion><flowPara
       id="flowPara5326"></flowPara></flowRoot>  <text
     xml:space="preserve"
     style="font-style:normal;font-weight:normal;font-size:13.33333302px;line-height:1.25;font-family:sans-serif;letter-spacing:0px;word-spacing:0px;fill:#000000;fill-opacity:1;stroke:none"
     x="761.46405"
     y="140.16322"
     id="text5330"><tspan
       sodipodi:role="line"
       id="tspan5328"
       x="761.46405"
       y="140.16322">1.25mu eV</tspan></text>
  <flowRoot
     xml:space="preserve"
     id="flowRoot5332"
     style="font-style:normal;font-weight:normal;font-size:13.33333302px;line-height:1.25;font-family:sans-serif;letter-spacing:0px;word-spacing:0px;fill:#000000;fill-opacity:1;stroke:none"
     transform="translate(-231.34355,320.69356)"><flowRegion
       id="flowRegion5334"
       style="font-size:13.33333302px"><rect
         id="rect5336"
         width="352"
         height="89"
         x="988"
         y="-141"
         style="font-size:13.33333302px" /></flowRegion><flowPara
       id="flowPara5338">0.079mu eV</flowPara></flowRoot>  <path
     style="fill:none;stroke:#000000;stroke-width:1px;stroke-linecap:butt;stroke-linejoin:miter;stroke-opacity:1"
     d="m 692.81246,121.73459 -34.50136,25.10712 34.50136,21.35746"
     id="path5340"
     inkscape:connector-curvature="0" />
  <path
     style="fill:none;stroke:#000000;stroke-width:1px;stroke-linecap:butt;stroke-linejoin:miter;stroke-opacity:1"
     d="m 658.3111,146.84171 34.50136,24.5069"
     id="path5342"
     inkscape:connector-curvature="0" />
  <flowRoot
     xml:space="preserve"
     id="flowRoot5354"
     style="font-style:normal;font-weight:normal;font-size:13.33333302px;line-height:1.25;font-family:sans-serif;letter-spacing:0px;word-spacing:0px;fill:#000000;fill-opacity:1;stroke:none"
     transform="translate(-102.5,59)"><flowRegion
       id="flowRegion5356"
       style="font-size:13.33333302px"><rect
         id="rect5358"
         width="105"
         height="51.5"
         x="799.5"
         y="48.5"
         style="font-size:13.33333302px" /></flowRegion><flowPara
       id="flowPara5360">J=1</flowPara></flowRoot>  <text
     xml:space="preserve"
     style="font-style:normal;font-weight:normal;font-size:13.33333302px;line-height:1.25;font-family:sans-serif;letter-spacing:0px;word-spacing:0px;fill:#000000;fill-opacity:1;stroke:none"
     x="698"
     y="165.5"
     id="text5364"><tspan
       sodipodi:role="line"
       id="tspan5362"
       x="698"
       y="165.5">J=2</tspan></text>
  <flowRoot
     xml:space="preserve"
     id="flowRoot5366"
     style="font-style:normal;font-weight:normal;font-size:13.33333302px;line-height:1.25;font-family:sans-serif;letter-spacing:0px;word-spacing:0px;fill:#000000;fill-opacity:1;stroke:none"
     transform="translate(143,150.5)"><flowRegion
       id="flowRegion5368"
       style="font-size:13.33333302px"><rect
         id="rect5370"
         width="135.5"
         height="48"
         x="555"
         y="21"
         style="font-size:13.33333302px" /></flowRegion><flowPara
       id="flowPara5372">J=3</flowPara></flowRoot>  <path
     style="fill:none;stroke:#000000;stroke-width:1px;stroke-linecap:butt;stroke-linejoin:miter;stroke-opacity:1"
     d="m 757.96406,121.16323 -0.5,46.5"
     id="path5376"
     inkscape:connector-curvature="0" />
  <path
     style="fill:none;stroke:#000000;stroke-width:1px;stroke-linecap:butt;stroke-linejoin:miter;stroke-opacity:1"
     d="M 785.86054,181.21186 757.5,169"
     id="path5378"
     inkscape:connector-curvature="0"
     sodipodi:nodetypes="cc" />
  <path
     style="fill:none;stroke:#000000;stroke-width:1px;stroke-linecap:butt;stroke-linejoin:miter;stroke-opacity:1"
     d="m 757.46406,167.66323 -0.17678,3.62392"
     id="path5380"
     inkscape:connector-curvature="0" />
  <flowRoot
     xml:space="preserve"
     id="flowRoot5382"
     style="font-style:normal;font-weight:normal;font-size:40px;line-height:1.25;font-family:sans-serif;letter-spacing:0px;word-spacing:0px;fill:#000000;fill-opacity:1;stroke:none"
     transform="rotate(-90,168.14258,168.82134)"><flowRegion
       id="flowRegion5384"><rect
         id="rect5386"
         width="146"
         height="164"
         x="27"
         y="41" /></flowRegion><flowPara
       id="flowPara5388">E (eV)</flowPara></flowRoot>  <flowRoot
     xml:space="preserve"
     id="flowRoot5390"
     style="fill:black;fill-opacity:1;stroke:none;font-family:sans-serif;font-style:normal;font-weight:normal;font-size:40px;line-height:1.25;letter-spacing:0px;word-spacing:0px"><flowRegion
       id="flowRegion5392"><rect
         id="rect5394"
         width="321"
         height="43"
         x="157"
         y="484" /></flowRegion><flowPara
       id="flowPara5396"></flowPara></flowRoot></svg>
